<svg id="about_no_fill" data-name="about_no fill" xmlns="http://www.w3.org/2000/svg" viewBox="0 0 16.15 17.15"><title>about_no-fill</title><ellipse cx="8.075" cy="8.02702" rx="8" ry="7.95202" style="fill:none;stroke:#333;stroke-linecap:round;stroke-linejoin:round;stroke-width:0.15000000596046448px"/><path d="M10.69,11.19c-.16971-.16869-.73-.19334-.73-.19334a5.1221,5.1221,0,0,0,.64-.95424,4.23749,4.23749,0,0,0,0-.95424s.48335-.07733.64-.31808a2.81074,2.81074,0,0,0,.32-1.27233c-.16515-.48771-.66179-.42121-.64-.31808a6.702,6.702,0,0,0-.32-1.90848A2.16259,2.16259,0,0,0,9,4.63505a2.16259,2.16259,0,0,0-1.6.63616,6.702,6.702,0,0,0-.32,1.90848c.02179-.10313-.47485-.16963-.64.31808A2.81074,2.81074,0,0,0,6.76,8.7701c.15665.24075.64.31808.64.31808a4.23749,4.23749,0,0,0,0,.95424,5.1221,5.1221,0,0,0,.64.95424,1.51435,1.51435,0,0,0-.72.19334" transform="translate(-0.925 -0.425)" style="fill:none;stroke:#333;stroke-linecap:round;stroke-linejoin:round;stroke-width:0.15000000596046448px"/><polygon points="7.251 16.327 7.251 13.09 6.744 12.917 6.744 16.327 7.251 16.327" style="fill:#fff;stroke:#333;stroke-linecap:round;stroke-linejoin:round;stroke-width:0.15000000596046448px"/><path d="M8.1756,16.75243v.46c0,.13227-.17645.28753-.17645.28753H7.84584s-.17645-.16677-.17645-.28753v-.46Z" transform="translate(-0.925 -0.425)" style="fill:none;stroke:#333;stroke-linecap:round;stroke-linejoin:round;stroke-width:0.15000000596046448px"/><path d="M10.32481,16.75243v.46c0,.13227-.17645.28753-.17645.28753H9.99505s-.17645-.16677-.17645-.28753v-.46Z" transform="translate(-0.925 -0.425)" style="fill:none;stroke:#333;stroke-linecap:round;stroke-linejoin:round;stroke-width:0.15000000596046448px"/><polygon points="9.4 16.327 9.4 12.917 8.894 13.094 8.894 16.327 9.4 16.327" style="fill:#fff;stroke:#333;stroke-linecap:round;stroke-linejoin:round;stroke-width:0.15000000596046448px"/><path d="M9.60744,13.5954c-.17066-.01725-.45992-.253-.61034-.253s-.43678.23577-.59877.253L4.99084,12.36767a.40733.40733,0,0,1-.28926-.57505c.1562-.322.38761-.71594.60745-.77632.14173-.03738.52934.23289.52934.23289s.30951-.45716.49464-.49454c.269-.046.98349.43416.98349.43416a2.203,2.203,0,0,0,1.66614.82808,2.26413,2.26413,0,0,0,1.70374-.82808s.71448-.483.98349-.43416c.18512.03162.49174.50029.49174.50029s.38761-.27027.52935-.23289c.21984.0575.45124.45429.60745.77344a.40724.40724,0,0,1-.19512.54386.41265.41265,0,0,1-.09415.03119Z" transform="translate(-0.925 -0.425)" style="fill:none;stroke:#333;stroke-linecap:round;stroke-linejoin:round;stroke-width:0.15000000596046448px"/></svg>