<svg id="about_2" data-name="about 2" xmlns="http://www.w3.org/2000/svg" viewBox="0 0 12.48333 12.40936"><title>about-orange</title><ellipse cx="6.24167" cy="6.20468" rx="6.16667" ry="6.12968" style="fill:none;stroke:#ff5722;stroke-linecap:round;stroke-linejoin:round;stroke-width:0.150000005960464px"/><path d="M8.23333,7.19056A1.651,1.651,0,0,0,7.74,6.94538a3.94827,3.94827,0,0,0,.49333-.73556,3.26657,3.26657,0,0,0,0-.73557s.37259-.05961.49334-.24518a2.16653,2.16653,0,0,0,.24666-.98075C8.846,3.87237,8.4632,3.92363,8.48,4.00313A5.16617,5.16617,0,0,0,8.23333,2.532,1.667,1.667,0,0,0,7,2.04163,1.667,1.667,0,0,0,5.76667,2.532,5.16617,5.16617,0,0,0,5.52,4.00313c.0168-.0795-.366-.13076-.49333.24519a2.16653,2.16653,0,0,0,.24666.98075c.12075.18557.49334.24518.49334.24518a3.26657,3.26657,0,0,0,0,.73557A3.94827,3.94827,0,0,0,6.26,6.94538a1.651,1.651,0,0,0-.49333.24518" transform="translate(-0.75833 -0.79532)" style="fill:none;stroke:#ff5722;stroke-linecap:round;stroke-linejoin:round;stroke-width:0.150000005960464px"/><polygon points="5.606 10.587 5.606 8.091 5.216 7.958 5.216 10.587 5.606 10.587" style="fill:none;stroke:#ff5722;stroke-linecap:round;stroke-linejoin:round;stroke-width:0.150000005960464px"/><path d="M6.36452,11.38212v.35461c0,.102-.136.22164-.136.22164H6.11034s-.136-.12855-.136-.22164v-.35461Z" transform="translate(-0.75833 -0.79532)" style="fill:none;stroke:#ff5722;stroke-linecap:round;stroke-linejoin:round;stroke-width:0.150000005960464px"/><path d="M8.0212,11.38212v.35461c0,.102-.136.22164-.136.22164H7.767s-.136-.12855-.136-.22164v-.35461Z" transform="translate(-0.75833 -0.79532)" style="fill:none;stroke:#ff5722;stroke-linecap:round;stroke-linejoin:round;stroke-width:0.150000005960464px"/><polygon points="7.263 10.587 7.263 7.958 6.873 8.095 6.873 10.587 7.263 10.587" style="fill:none;stroke:#ff5722;stroke-linecap:round;stroke-linejoin:round;stroke-width:0.150000005960464px"/><path d="M7.46823,8.94857c-.13155-.0133-.35452-.195-.47047-.195s-.33668.18174-.46155.195l-2.6266-.94638a.314.314,0,0,1-.223-.44327c.12041-.24823.29879-.55187.46824-.59841.10926-.02881.408.17953.408.17953s.23858-.3524.38128-.38122c.20737-.03546.75811.33467.75811.33467a1.6981,1.6981,0,0,0,1.28432.63831,1.74527,1.74527,0,0,0,1.3133-.63831s.55074-.37234.7581-.33467c.1427.02438.37906.38565.37906.38565s.29878-.20834.408-.17953c.16946.04433.34784.35019.46824.5962a.31389.31389,0,0,1-.1504.41922.31791.31791,0,0,1-.07257.024Z" transform="translate(-0.75833 -0.79532)" style="fill:none;stroke:#ff5722;stroke-linecap:round;stroke-linejoin:round;stroke-width:0.150000005960464px"/></svg>