<svg id="about_2" data-name="about 2" xmlns="http://www.w3.org/2000/svg" viewBox="0 0 24.15 24.15"><defs><style>.cls-1{fill:none;stroke:#d6d7da;stroke-linecap:round;stroke-linejoin:round;stroke-width:0.15px;}</style></defs><circle class="cls-1" cx="12.075" cy="12.075" r="12"/><path class="cls-1" d="M8.64166,6.57774a3.20509,3.20509,0,0,0-.96-.48,7.73238,7.73238,0,0,0,.96-1.44,6.43336,6.43336,0,0,0,0-1.44s.725-.1167.96-.48a4.26173,4.26173,0,0,0,.48-1.92c-.24778-.736-.99268-.63564-.96-.48a10.16909,10.16909,0,0,0-.48-2.88,3.23361,3.23361,0,0,0-2.4-.96,3.23361,3.23361,0,0,0-2.4.96,10.16909,10.16909,0,0,0-.48,2.88c.03269-.15563-.71221-.256-.96.48a4.26184,4.26184,0,0,0,.48,1.92c.235.36329.96.48.96.48a6.43336,6.43336,0,0,0,0,1.44,7.73238,7.73238,0,0,0,.96,1.44,3.20509,3.20509,0,0,0-.96.48" transform="translate(5.83333 5.87032)"/><polygon class="cls-1" points="10.838 20.654 10.838 15.768 10.079 15.507 10.079 20.654 10.838 20.654"/><path class="cls-1" d="M5.00506,14.7835v.69422c0,.19968-.26465.4339-.26465.4339h-.23s-.26465-.25166-.26465-.4339V14.7835Z" transform="translate(5.83333 5.87032)"/><path class="cls-1" d="M8.22887,14.7835v.69422c0,.19968-.26465.4339-.26465.4339h-.23s-.26465-.25166-.26465-.4339V14.7835Z" transform="translate(5.83333 5.87032)"/><polygon class="cls-1" points="14.062 20.654 14.062 15.507 13.304 15.776 13.304 20.654 14.062 20.654"/><path class="cls-1" d="M7.15282,10.01937c-.256-.026-.68988-.38175-.91551-.38175s-.65516.35579-.89815.38175L.22794,8.16666A.61615.61615,0,0,1-.206,7.29887c.23431-.486.58142-1.08039.91116-1.1715.21262-.0564.79395.35147.79395.35147s.46426-.68989.742-.74631c.40353-.06942,1.47524.65518,1.47524.65518A3.29752,3.29752,0,0,0,6.21552,7.63732,3.38874,3.38874,0,0,0,8.77113,6.38771s1.07171-.72893,1.47522-.65518c.27768.04772.73762.755.73762.755s.58142-.40787.794-.35147c.32976.08679.67688.68557.91117,1.16718a.61612.61612,0,0,1-.289.819l-.00368.00175a.61588.61588,0,0,1-.14122.047Z" transform="translate(5.83333 5.87032)"/></svg>