<svg id="about_no_fill_black_stroke" data-name="about_no fill_black stroke" xmlns="http://www.w3.org/2000/svg" viewBox="0 0 9.15 12.15"><title>about_no fill-black stroke</title><path d="M8.75306,7.11424a1.74955,1.74955,0,0,0-.75724-.18034,4.78839,4.78839,0,0,0,.66388-.89008,3.55679,3.55679,0,0,0,0-.89009s.50139-.07213.66388-.29669a2.41372,2.41372,0,0,0,.332-1.18678c-.17131-.45493-.68649-.3929-.66389-.2967A5.67738,5.67738,0,0,0,8.6597,1.59339,2.3833,2.3833,0,0,0,7,1a2.3833,2.3833,0,0,0-1.6597.59339,5.67738,5.67738,0,0,0-.33194,1.78017c.0226-.0962-.49258-.15823-.66389.2967A2.41372,2.41372,0,0,0,4.67642,4.857c.16249.22456.66388.29669.66388.29669a3.55679,3.55679,0,0,0,0,.89009,4.78839,4.78839,0,0,0,.66388.89008,1.71271,1.71271,0,0,0-.74687.18034" transform="translate(-2.425 -0.925)" style="fill:none;stroke:#333;stroke-linecap:round;stroke-linejoin:round;stroke-width:0.150000005960464px"/><polygon points="3.72 11.378 3.72 8.358 3.195 8.197 3.195 11.378 3.72 11.378" style="fill:none;stroke:#333;stroke-linecap:round;stroke-linejoin:round;stroke-width:0.150000005960464px"/><path d="M6.14484,12.30269v.42912c0,.12336-.183.26819-.183.26819h-.159s-.183-.15555-.183-.26819v-.42912Z" transform="translate(-2.425 -0.925)" style="fill:none;stroke:#333;stroke-linecap:round;stroke-linejoin:round;stroke-width:0.150000005960464px"/><path d="M8.37424,12.30269v.42912c0,.12336-.183.26819-.183.26819h-.159s-.183-.15555-.183-.26819v-.42912Z" transform="translate(-2.425 -0.925)" style="fill:none;stroke:#333;stroke-linecap:round;stroke-linejoin:round;stroke-width:0.150000005960464px"/><polygon points="5.949 11.378 5.949 8.197 5.424 8.362 5.424 11.378 5.949 11.378" style="fill:none;stroke:#333;stroke-linecap:round;stroke-linejoin:round;stroke-width:0.150000005960464px"/><path d="M7.63011,9.35792c-.177-.01609-.47709-.236-.63312-.236s-.45308.21992-.62111.236L2.84124,8.21273a.38429.38429,0,0,1-.33261-.4491.35363.35363,0,0,1,.03256-.08729c.162-.30038.40207-.6678.63011-.72412.147-.03487.5491.21723.5491.21723s.32106-.42643.51309-.46129c.27905-.04291,1.02019.405,1.02019.405a2.38319,2.38319,0,0,0,1.72831.7724,2.45456,2.45456,0,0,0,1.76732-.7724s.74113-.45056,1.02018-.405c.192.0295.5101.46666.5101.46666s.40207-.25211.54909-.21724c.228.05364.46809.42375.63012.72144a.36433.36433,0,0,1-.2024.50729.46112.46112,0,0,1-.09766.0291Z" transform="translate(-2.425 -0.925)" style="fill:none;stroke:#333;stroke-linecap:round;stroke-linejoin:round;stroke-width:0.150000005960464px"/></svg>