<svg id="hmlogo-munsell" data-name="Layer 4" xmlns="http://www.w3.org/2000/svg" viewBox="0 0 40.25 64.25"><defs><style>.cls-1,.cls-8{fill:#45425a;}.cls-1,.cls-2,.cls-3,.cls-4,.cls-5,.cls-6{stroke:#45425a;stroke-linecap:round;stroke-linejoin:round;stroke-width:0.25px;}.cls-2{fill:#d1d1d1;}.cls-3,.cls-7{fill:#198581;}.cls-4{fill:none;}.cls-5{fill:#246eb9;}.cls-6{fill:#fff;}</style></defs><path class="cls-1" d="M9.94762-10.41568h7.348a.92509.92509,0,0,1,.8935.95373h0a.92509.92509,0,0,1-.8935.95374h-7.348a.92509.92509,0,0,1-.8935-.95373h0a.92509.92509,0,0,1,.8935-.95374Z" transform="translate(6.44336 11.67944)"/><path id="Half_Neck" data-name="Half Neck" class="cls-2" d="M26.604,28.04691V25.55586s-7.68139-4.427-7.68139-7.4306H8.50735c0,3.01779-7.85475,7.4306-7.85475,7.4306v2.49105a105.50845,105.50845,0,0,0,13.01569,2.1779A103.58731,103.58731,0,0,0,26.604,28.04691Z" transform="translate(6.44336 11.67944)"/><polygon class="cls-1" points="16.324 60.424 16.324 44.396 13.99 43.541 13.99 60.424 16.324 60.424"/><path class="cls-3" d="M9.88094,48.7445v2.27757c0,.6548-.81348,1.42349-.81348,1.42349h-.7068s-.81348-.82563-.81348-1.42349V48.7445Z" transform="translate(6.44336 11.67944)"/><path class="cls-3" d="M19.78937,48.7445v2.27757c0,.6548-.81348,1.42349-.81348,1.42349h-.7068s-.81347-.82563-.81347-1.42349V48.7445Z" transform="translate(6.44336 11.67944)"/><polygon class="cls-1" points="26.233 60.424 26.233 43.541 23.899 44.418 23.899 60.424 26.233 60.424"/><path class="cls-2" d="M13.58827,22.45265c3.36061,0,8.50821-3.82918,8.82827-7.11744a36.75852,36.75852,0,0,0-.41341-6.24911l.60011-1.26691q.56011-1.21,1.08019-2.43417c.3467-.82562.68011-1.65125.98686-2.4911s.58676-1.65124.82681-2.47686.44008-1.58007.6001-2.37723A17.41878,17.41878,0,0,0,26.36392-4.195a9.87216,9.87216,0,0,0,0-1.96441,5.4457,5.4457,0,0,0-.45341-1.637A3.70717,3.70717,0,0,0,24.937-9.07761a7.32106,7.32106,0,0,0-1.89367-1.096,16.86422,16.86422,0,0,0-2.66715-.82562,29.20353,29.20353,0,0,0-3.0939-.55517L15.24194-9.33379H11.93463L9.8943-11.55444a29.20015,29.20015,0,0,0-3.14724.55517,16.86386,16.86386,0,0,0-2.66715.82561,7.32061,7.32061,0,0,0-1.89367,1.096,3.70705,3.70705,0,0,0-.97352,1.28114,5.44522,5.44522,0,0,0-.45344,1.637,9.87226,9.87226,0,0,0,0,1.96442A17.42,17.42,0,0,0,1.026-1.98862c.16.79716.3734,1.5943.60011,2.37723s.53343,1.66548.82681,2.47686S3.093,4.531,3.43976,5.35657s.7068,1.637,1.0802,2.43417l.6001,1.26691a36.75914,36.75914,0,0,0-.4134,6.306C5.02672,18.60925,10.22766,22.45265,13.58827,22.45265Z" transform="translate(6.44336 11.67944)"/><path class="cls-1" d="M11.02781-6.65766,9.69424-8.1808a19.911,19.911,0,0,0-2.14706.37007,11.49986,11.49986,0,0,0-1.80032.5694,4.982,4.982,0,0,0-1.33358.75445,2.53481,2.53481,0,0,0-.66683.86833,3.72546,3.72546,0,0,0-.30673,1.11031,6.72854,6.72854,0,0,0,0,1.33808,11.86327,11.86327,0,0,0,.21337,1.5089c.1067.54093.25338,1.08186.41341,1.62278s.36006,1.13879.56009,1.694.44008,1.13879.66684,1.694.61344,1.42349.86682,1.95018c.13335.2847,1.547,3.98572,1.69363,4.27047l3.20058,1.16726Z" transform="translate(6.44336 11.67944)"/><line class="cls-4" x1="20.04497" y1="2.38831" x2="20.04497" y2="15.74064"/><path class="cls-3" d="M13.60161-4.99219H13.615a1.39454,1.39454,0,0,1,1.34691,1.43772v2.16371A1.39454,1.39454,0,0,1,13.615.047h-.01334A1.39454,1.39454,0,0,1,12.2547-1.39076V-3.55447A1.39454,1.39454,0,0,1,13.60161-4.99219Z" transform="translate(6.44336 11.67944)"/><path class="cls-3" d="M13.60159,3.84768H13.615a.80081.80081,0,0,1,.77346.82561v.49824a.80082.80082,0,0,1-.77346.82562h-.01336a.80082.80082,0,0,1-.77346-.82562V4.67329A.80081.80081,0,0,1,13.60159,3.84768Z" transform="translate(6.44336 11.67944)"/><path class="cls-1" d="M16.1754-6.65766,17.509-8.1808a19.91237,19.91237,0,0,1,2.18706.38434,11.49925,11.49925,0,0,1,1.80033.5694A4.98184,4.98184,0,0,1,22.83-6.47261a2.53493,2.53493,0,0,1,.66683.86833A3.72537,3.72537,0,0,1,23.80351-4.494a6.73,6.73,0,0,1,0,1.33808,11.8615,11.8615,0,0,1-.21338,1.5089c-.10669.54093-.25338,1.08186-.4134,1.62277s-.36006,1.13879-.5601,1.694-.44008,1.13879-.66683,1.694-.61344,1.42349-.86682,1.95019c-.13335.2847-1.54695,3.98572-1.69364,4.27046L16.18877,10.7516Z" transform="translate(6.44336 11.67944)"/><path class="cls-3" d="M16.48213,33.11459c-.7868-.08542-2.12038-1.25268-2.81384-1.25268s-2.0137,1.16726-2.76049,1.25268l-15.70954-6.0783A2.02154,2.02154,0,0,1-6.28,24.65264a2.11707,2.11707,0,0,1,.14469-.46332c.72013-1.59431,1.787-3.54449,2.8005-3.84343.65345-.18505,2.44045,1.153,2.44045,1.153s1.42693-2.26334,2.28041-2.44841C2.62627,18.82275,5.9202,21.2,5.9202,21.2a9.93012,9.93012,0,0,0,7.68139,4.09965A10.19018,10.19018,0,0,0,21.45635,21.2s3.29392-2.39146,4.53414-2.14947c.85349.15658,2.26708,2.47686,2.26708,2.47686s1.787-1.33808,2.44045-1.153c1.01352.2847,2.08038,2.2491,2.8005,3.82919a2.08256,2.08256,0,0,1-.89952,2.69253,1.81175,1.81175,0,0,1-.43406.15444Z" transform="translate(6.44336 11.67944)"/><path class="cls-5" d="M7.61385,32.37436" transform="translate(6.44336 11.67944)"/><ellipse class="cls-6" cx="15.76419" cy="24.93636" rx="1.70697" ry="1.82206"/><path class="cls-7" d="M8.20062,13.02918c.38673-.07118.45342-.19929.25338-.5694.3734.15657.48009.07118.48009-.34165.25338.32741.38674.31317.58677,0,.06668.41281.2.484.53344.27047-.14669.38433-.06669.51246.33341.51246-.30672.27046-.29339.4128,0,.62632-.38673.07118-.45341.19929-.25338.56941-.3734-.15658-.48009-.07118-.48009.34164-.25338-.32741-.38673-.31317-.58677,0-.06668-.41281-.2-.484-.53343-.27046.14669-.38434.06668-.51246-.33342-.51246C8.54736,13.35657,8.534,13.2427,8.20062,13.02918Z" transform="translate(6.44336 11.67944)"/><ellipse class="cls-8" cx="15.76419" cy="24.93636" rx="0.56009" ry="0.59786"/><ellipse class="cls-6" cx="24.33907" cy="24.93636" rx="1.70697" ry="1.82206"/><path class="cls-7" d="M19.01592,13.02918c-.38674-.07118-.45342-.19929-.25338-.5694-.3734.15657-.48009.07118-.48009-.34165-.25338.32741-.38674.31317-.58677,0-.06668.41281-.2.484-.53344.27047.14669.38433.06669.51246-.33341.51246.30673.27046.29339.4128,0,.62632.38673.07118.45341.19929.25338.56941.37339-.15658.48009-.07118.48009.34164.25338-.32741.38673-.31317.58677,0,.06668-.41281.2-.484.53343-.27046-.14669-.38434-.06668-.51246.33342-.51246C18.65586,13.35657,18.66919,13.2427,19.01592,13.02918Z" transform="translate(6.44336 11.67944)"/><ellipse class="cls-8" cx="24.33907" cy="24.93636" rx="0.56009" ry="0.59786"/><line class="cls-4" x1="19.38776" y1="10.08939" x2="20.71552" y2="10.08939"/><line class="cls-4" x1="19.31399" y1="9.20682" x2="20.78928" y2="9.20682"/><line class="cls-4" x1="19.37442" y1="8.3812" x2="20.70218" y2="8.3812"/><path class="cls-4" d="M15.97537,18.1395a4.61284,4.61284,0,0,1-4.74749,0" transform="translate(6.44336 11.67944)"/></svg>