<svg id="Layer_4" data-name="Layer 4" xmlns="http://www.w3.org/2000/svg" viewBox="0 0 27.36327 40.8911"><defs><style>.cls-1,.cls-8{fill:#45425a;}.cls-1,.cls-2,.cls-3,.cls-4,.cls-5,.cls-6{stroke:#45425a;stroke-linecap:round;stroke-linejoin:round;stroke-width:0.25px;}.cls-2{fill:#d1d1d1;}.cls-3,.cls-7{fill:#198581;}.cls-4{fill:none;}.cls-5{fill:#246eb9;}.cls-6{fill:#fff;}</style></defs><path class="cls-1" d="M11.1506.84814h4.98071a.60563.60563,0,0,1,.60564.60564h0a.60563.60563,0,0,1-.60564.60564H11.1506a.60564.60564,0,0,1-.60564-.60564h0A.60564.60564,0,0,1,11.1506.84814Z" transform="translate(-0.00001 -0.00001)"/><path id="Half_Neck" data-name="Half Neck" class="cls-2" d="M22.4408,25.27255V23.69069s-5.20669-2.81125-5.20669-4.71856H10.17434c0,1.91635-5.3242,4.71856-5.3242,4.71856v1.58186a75.94793,75.94793,0,0,0,8.82245,1.383A74.56217,74.56217,0,0,0,22.4408,25.27255Z" transform="translate(-0.00001 -0.00001)"/><polygon class="cls-1" points="11.105 38.416 11.105 28.238 9.523 27.695 9.523 38.416 11.105 38.416"/><path class="cls-3" d="M11.1054,38.41587v1.4463c0,.41581-.5514.90394-.5514.90394h-.47909s-.5514-.52429-.5514-.90394v-1.4463Z" transform="translate(-0.00001 -0.00001)"/><path class="cls-3" d="M17.82165,38.41587v1.4463c0,.41581-.5514.90394-.5514.90394h-.47909s-.5514-.52429-.5514-.90394v-1.4463Z" transform="translate(-0.00001 -0.00001)"/><polygon class="cls-1" points="17.822 38.416 17.822 27.695 16.24 28.252 16.24 38.416 17.822 38.416"/><path class="cls-2" d="M13.61835,21.7201c2.27793,0,5.76713-2.4316,5.98408-4.5197a21.89362,21.89362,0,0,0-.28022-3.96829l.40677-.80451q.37966-.76835.73219-1.54574c.235-.52428.461-1.04857.66892-1.58189s.39773-1.04857.56044-1.57285.2983-1.00337.40677-1.50958a10.39411,10.39411,0,0,0,.18079-1.41918,5.875,5.875,0,0,0,0-1.24744,3.29013,3.29013,0,0,0-.30734-1.03953,2.37727,2.37727,0,0,0-.65988-.81355,5.05289,5.05289,0,0,0-1.28359-.696A12.00328,12.00328,0,0,0,18.2194.47755,21.00691,21.00691,0,0,0,16.12226.125l-1.383,1.41015h-2.2418L11.11446.125a21.01036,21.01036,0,0,0-2.1333.35254,12.00475,12.00475,0,0,0-1.80788.52428,5.05306,5.05306,0,0,0-1.28359.696,2.37748,2.37748,0,0,0-.65988.81355,3.29056,3.29056,0,0,0-.30736,1.03954,5.87631,5.87631,0,0,0,0,1.24744,10.39591,10.39591,0,0,0,.18079,1.40111c.10847.50621.2531,1.01241.40677,1.50958s.36158,1.05761.56044,1.57285.43389,1.05761.66892,1.58189.47909,1.03953.73219,1.54574l.40677.80451a21.89345,21.89345,0,0,0-.28022,4.00445C7.81506,19.27947,11.34042,21.7201,13.61835,21.7201Z" transform="translate(-0.00001 -0.00001)"/><path class="cls-1" d="M11.88279,3.23455l-.90394-.96722a14.32985,14.32985,0,0,0-1.45534.235,8.18132,8.18132,0,0,0-1.22032.36158,3.44391,3.44391,0,0,0-.90394.47909,1.627,1.627,0,0,0-.452.5514,2.25089,2.25089,0,0,0-.20791.70507,4.005,4.005,0,0,0,0,.8497,7.08748,7.08748,0,0,0,.14463.95818c.07232.3435.17175.687.28022,1.03049s.24406.72315.37965,1.07569.2983.72315.452,1.07569.41581.90394.58756,1.2384c.09039.18079,1.04857,2.531,1.148,2.71182l2.16945.74123Z" transform="translate(-0.00001 -0.00001)"/><line class="cls-4" x1="13.62739" y1="1.56224" x2="13.62739" y2="10.0412"/><rect class="cls-3" x="12.71441" y="4.29214" width="1.835" height="3.19995" rx="0.91298"/><rect class="cls-3" x="13.1031" y="9.90561" width="1.05761" height="1.36495" rx="0.52428"/><path class="cls-1" d="M15.372,3.23455l.90394-.96722a14.32837,14.32837,0,0,1,1.48246.24406,8.18062,8.18062,0,0,1,1.22032.36158,3.44375,3.44375,0,0,1,.90394.47909,1.627,1.627,0,0,1,.452.5514,2.25036,2.25036,0,0,1,.20791.70507,4.00373,4.00373,0,0,1,0,.8497,7.0859,7.0859,0,0,1-.14463.95818c-.07232.3435-.17175.687-.28022,1.03049s-.24406.72315-.37965,1.07569-.2983.72315-.452,1.07569-.41581.90394-.58756,1.2384c-.09039.18079-1.04857,2.531-1.148,2.71182l-2.16945.74123Z" transform="translate(-0.00001 -0.00001)"/><path class="cls-3" d="M15.5799,28.49061c-.53332-.05424-1.43726-.79547-1.90731-.79547s-1.365.74123-1.87115.79547L1.153,24.63079a1.2836,1.2836,0,0,1-.90394-1.80788c.48813-1.01241,1.21128-2.25081,1.89827-2.44064.44293-.11751,1.65421.73219,1.65421.73219s.96722-1.43726,1.54574-1.55478c.84066-.14463,3.07339,1.365,3.07339,1.365A6.87,6.87,0,0,0,13.62738,23.528a7.05977,7.05977,0,0,0,5.3242-2.60335s2.23273-1.51862,3.07339-1.365c.57852.09943,1.5367,1.57285,1.5367,1.57285s1.21128-.8497,1.65421-.73219c.687.18079,1.41015,1.42822,1.89827,2.4316a1.28359,1.28359,0,0,1-.90394,1.80788Z" transform="translate(-0.00001 -0.00001)"/><path class="cls-5" d="M9.5687,28.02055" transform="translate(-0.00001 -0.00001)"/><circle class="cls-6" cx="10.72574" cy="15.88064" r="1.15704"/><path class="cls-7" d="M9.96643,15.736c.26214-.0452.30734-.12655.17175-.36158.2531.09943.32542.0452.32542-.21695.17175.20791.26214.19887.39773,0,.0452.26214.13559.30734.36158.17175-.09943.24406-.0452.32542.226.32542-.20791.17175-.19887.26214,0,.39773-.26214.0452-.30734.12655-.17175.36158-.2531-.09943-.32542-.0452-.32542.217-.17175-.20791-.26214-.19887-.39773,0-.0452-.26214-.13559-.30734-.36158-.17175.09943-.24406.0452-.32542-.226-.32542C10.20146,15.94393,10.19242,15.87162,9.96643,15.736Z" transform="translate(-0.00001 -0.00001)"/><circle class="cls-8" cx="10.72574" cy="15.88064" r="0.37965"/><circle class="cls-6" cx="16.53807" cy="15.88064" r="1.15704"/><path class="cls-7" d="M17.29738,15.736c-.26214-.0452-.30734-.12655-.17175-.36158-.2531.09943-.32542.0452-.32542-.21695-.17175.20791-.26214.19887-.39773,0-.0452.26214-.13559.30734-.36158.17175.09943.24406.0452.32542-.226.32542.20791.17175.19887.26214,0,.39773.26214.0452.30734.12655.17175.36158.2531-.09943.32542-.0452.32542.217.17175-.20791.26214-.19887.39773,0,.0452-.26214.13559-.30734.36158-.17175-.09943-.24406-.0452-.32542.226-.32542C17.05332,15.94393,17.06236,15.87162,17.29738,15.736Z" transform="translate(-0.00001 -0.00001)"/><circle class="cls-8" cx="16.53807" cy="15.88064" r="0.37965"/><line class="cls-4" x1="13.18191" y1="6.45256" x2="14.08191" y2="6.45256"/><line class="cls-4" x1="13.13191" y1="5.89211" x2="14.13191" y2="5.89211"/><line class="cls-4" x1="13.17287" y1="5.36783" x2="14.07287" y2="5.36783"/><path class="cls-4" d="M15.2364,18.98117a3.30841,3.30841,0,0,1-3.218,0" transform="translate(-0.00001 -0.00001)"/></svg>