<svg id="Layer_3" data-name="Layer 3" xmlns="http://www.w3.org/2000/svg" viewBox="0 0 24.15 32.15"><defs><style>.cls-1{fill:#d6d7da;}.cls-1,.cls-2,.cls-3,.cls-4{stroke:#333;}.cls-1,.cls-2,.cls-3,.cls-4,.cls-5{stroke-linecap:round;stroke-linejoin:round;stroke-width:0.15px;}.cls-2{fill:none;}.cls-3{fill:#0c9;}.cls-4,.cls-6{fill:#333;}.cls-5{fill:#1fe84f;stroke:#1c1c1c;}</style></defs><path id="Half_Neck" data-name="Half Neck" class="cls-1" d="M19.82787,22.76975l-2.29321-2.3971a1.93941,1.93941,0,0,1-1.37485-1.67725H11.18626a1.939,1.939,0,0,1-1.407,1.6721L7.43541,22.76975s4.65514.10821,6.19623.10821S19.82787,22.76975,19.82787,22.76975Z" transform="translate(-1.55664 -3.69153)"/><path class="cls-1" d="M7.878,11.89185v-4.43c0-2.48406,2.58914-3.69529,5.75364-3.69529h0c3.1645,0,5.75364,1.21123,5.75364,3.69529v8.86006c0,2.48406-2.58914,3.69529-5.75364,3.69529h0c-3.1645,0-5.75364-1.21123-5.75364-3.69529v-4.43" transform="translate(-1.55664 -3.69153)"/><path class="cls-2" d="M19.38528,14.37965a26.828,26.828,0,0,1-5.75364.45763A26.82736,26.82736,0,0,1,7.878,14.37964" transform="translate(-1.55664 -3.69153)"/><path class="cls-3" d="M17.29627,33.85688v1.17517c0,.33786-.4881.73448-.4881.73448H16.3841s-.4881-.426-.4881-.73448V33.85688Z" transform="translate(-1.55664 -3.69153)"/><polygon class="cls-4" points="15.74 30.166 15.74 21.454 14.34 21.907 14.34 30.166 15.74 30.166"/><line class="cls-2" x1="12.075" y1="0.22061" x2="12.075" y2="11.14575"/><path class="cls-3" d="M15.31192,25.79229c-.47209-.04406-1.27223-.64634-1.6883-.64634s-1.20827.60228-1.65631.64634L2.5416,22.65606a1.04909,1.04909,0,0,1-.88693-1.23.98435.98435,0,0,1,.08679-.239c.43208-.82261,1.07219-1.82885,1.68031-1.98309.39207-.09549,1.46426.59493,1.46426.59493s.85615-1.16783,1.36825-1.26331c.74414-.11751,3.51515,1.83851,3.51515,1.83851a4.61883,4.61883,0,0,0,3.86221,1.92828,4.64394,4.64394,0,0,0,3.89105-1.92977s2.75013-1.96188,3.49427-1.837c.51209.08079,1.36024,1.278,1.36024,1.278s1.0722-.69041,1.46427-.59492c.60811.14689,1.24823,1.16048,1.68031,1.97575a1.00749,1.00749,0,0,1-.53976,1.38928,1.20788,1.20788,0,0,1-.26039.07968Z" transform="translate(-1.55664 -3.69153)"/><polygon class="cls-4" points="9.794 30.166 9.794 21.896 8.394 21.454 8.394 30.166 9.794 30.166"/><path class="cls-3" d="M11.35121,33.85688v1.17517c0,.33786-.48809.73448-.48809.73448H10.439s-.48809-.426-.48809-.73448V33.85688Z" transform="translate(-1.55664 -3.69153)"/><path class="cls-5" d="M9.991,25.41035" transform="translate(-1.55664 -3.69153)"/><ellipse class="cls-3" cx="9.41947" cy="12.61846" rx="1.02418" ry="0.94013"/><ellipse class="cls-6" cx="9.41947" cy="12.61846" rx="0.41704" ry="0.38282"/><ellipse class="cls-3" cx="14.73052" cy="12.61846" rx="1.02418" ry="0.94013"/><ellipse class="cls-6" cx="14.73052" cy="12.61846" rx="0.42046" ry="0.38595"/><path class="cls-3" d="M13.62764,7.05133h.008a.90163.90163,0,0,1,.80817.97882V9.50327a.90164.90164,0,0,1-.80817.97883h-.008a.90164.90164,0,0,1-.80817-.97883V8.03015A.90163.90163,0,0,1,13.62764,7.05133Z" transform="translate(-1.55664 -3.69153)"/><line class="cls-2" x1="11.78732" y1="5.86952" x2="12.36268" y2="5.86952"/><line class="cls-2" x1="11.74306" y1="5.07517" x2="12.40694" y2="5.07517"/><line class="cls-2" x1="11.78732" y1="4.29485" x2="12.36268" y2="4.29485"/><path class="cls-2" d="M15.05589,18.57792a3.15863,3.15863,0,0,1-2.8485,0" transform="translate(-1.55664 -3.69153)"/><path id="Half_Neck-2" data-name="Half Neck" class="cls-1" d="M19.82787,22.76975l-2.29321-2.3971a1.93939,1.93939,0,0,1-1.37485-1.67725H11.18626a1.939,1.939,0,0,1-1.407,1.6721L7.43541,22.76975s4.65514.10821,6.19623.10821S19.82787,22.76975,19.82787,22.76975Z" transform="translate(-1.55664 -3.69153)"/><path class="cls-1" d="M7.878,11.89185v-4.43c0-2.48406,2.58913-3.69529,5.75364-3.69529h0c3.1645,0,5.75364,1.21123,5.75364,3.69529v8.86006c0,2.48406-2.58914,3.69529-5.75364,3.69529h0c-3.16451,0-5.75364-1.21123-5.75364-3.69529v-4.43" transform="translate(-1.55664 -3.69153)"/><path class="cls-2" d="M19.38528,13.81825a29.87507,29.87507,0,0,1-5.75366.75522A30.38758,30.38758,0,0,1,7.878,13.81825" transform="translate(-1.55664 -3.69153)"/><path class="cls-3" d="M17.29626,33.85688v1.17517c0,.33786-.48809.73448-.48809.73448H16.3841s-.4881-.426-.4881-.73448V33.85688Z" transform="translate(-1.55664 -3.69153)"/><polygon class="cls-4" points="15.74 30.166 15.74 21.454 14.34 21.907 14.34 30.166 15.74 30.166"/><line class="cls-2" x1="12.075" y1="0.22061" x2="12.07498" y2="10.88194"/><path class="cls-3" d="M15.31192,25.79229c-.47209-.04406-1.27223-.64634-1.6883-.64634s-1.20827.60228-1.65631.64634L2.5416,22.65606a1.04908,1.04908,0,0,1-.88693-1.23.98474.98474,0,0,1,.08678-.239c.43208-.82261,1.0722-1.82885,1.68031-1.9831.39208-.09548,1.46427.59494,1.46427.59494s.85615-1.16783,1.36824-1.26331c.74414-.11752,3.51516,1.83851,3.51516,1.83851a4.61884,4.61884,0,0,0,3.86221,1.92828,4.64391,4.64391,0,0,0,3.891-1.92977s2.75014-1.96188,3.49428-1.837c.51209.08079,1.36024,1.278,1.36024,1.278s1.07219-.69041,1.46426-.59493c.60812.1469,1.24823,1.16049,1.68031,1.97576a1.00747,1.00747,0,0,1-.53975,1.38928,1.20788,1.20788,0,0,1-.26039.07968Z" transform="translate(-1.55664 -3.69153)"/><polygon class="cls-4" points="9.794 30.166 9.794 21.896 8.394 21.454 8.394 30.166 9.794 30.166"/><path class="cls-3" d="M11.3512,33.85688v1.17517c0,.33786-.48808.73448-.48808.73448H10.439s-.4881-.426-.4881-.73448V33.85688Z" transform="translate(-1.55664 -3.69153)"/><path class="cls-5" d="M9.991,25.41035" transform="translate(-1.55664 -3.69153)"/><ellipse class="cls-3" cx="9.41947" cy="12.61846" rx="1.02418" ry="0.94013"/><ellipse class="cls-6" cx="9.41947" cy="12.61846" rx="0.41704" ry="0.38282"/><ellipse class="cls-3" cx="14.73052" cy="12.61846" rx="1.02418" ry="0.94013"/><ellipse class="cls-6" cx="14.73052" cy="12.61846" rx="0.42046" ry="0.38595"/><path class="cls-3" d="M13.62764,7.05133h.008a.90163.90163,0,0,1,.80817.97882V9.50327a.90164.90164,0,0,1-.80817.97883h-.008a.90163.90163,0,0,1-.80816-.97883V8.03015A.90163.90163,0,0,1,13.62764,7.05133Z" transform="translate(-1.55664 -3.69153)"/><line class="cls-2" x1="11.78731" y1="5.86952" x2="12.36268" y2="5.86952"/><line class="cls-2" x1="11.74306" y1="5.07517" x2="12.40694" y2="5.07517"/><line class="cls-2" x1="11.78731" y1="4.29484" x2="12.36268" y2="4.29484"/><path class="cls-2" d="M15.05588,18.57792a3.1586,3.1586,0,0,1-2.84849,0" transform="translate(-1.55664 -3.69153)"/></svg>