<?xml version="1.0" encoding="utf-8"?>
<!-- Generator: Adobe Illustrator 26.0.1, SVG Export Plug-In . SVG Version: 6.00 Build 0)  -->
<svg version="1.1" id="Hooded_Mouse" xmlns="http://www.w3.org/2000/svg" xmlns:xlink="http://www.w3.org/1999/xlink" x="0px"
	 y="0px" viewBox="0 0 27.4 40.9" style="enable-background:new 0 0 27.4 40.9;" xml:space="preserve">
<style type="text/css">
	.st0{fill:#444444;stroke:#333333;stroke-width:0.25;stroke-linecap:round;stroke-linejoin:round;}
	.st1{fill:#E6E6E6;stroke:#333333;stroke-width:0.25;stroke-linecap:round;stroke-linejoin:round;}
	.st2{fill:#2BC8C2;stroke:#333333;stroke-width:0.25;stroke-linecap:round;stroke-linejoin:round;}
	.st3{fill:none;stroke:#333333;stroke-width:0.25;stroke-linecap:round;stroke-linejoin:round;}
	.st4{fill:#1FE84F;stroke:#333333;stroke-width:0.25;stroke-linecap:round;stroke-linejoin:round;}
	.st5{fill:#FFFFFF;stroke:#333333;stroke-width:0.25;stroke-linecap:round;stroke-linejoin:round;}
	.st6{fill:#2BC8C2;}
	.st7{fill:#333333;}
</style>
<path class="st0" d="M11.2,0.8h5c0.3,0,0.6,0.3,0.6,0.6c0,0,0,0,0,0l0,0c0,0.3-0.3,0.6-0.6,0.6l0,0h-5c-0.3,0-0.6-0.3-0.6-0.6
	c0,0,0,0,0,0l0,0C10.5,1.1,10.8,0.8,11.2,0.8C11.2,0.8,11.2,0.8,11.2,0.8z"/>
<path id="Half_Neck" class="st1" d="M22.4,25.3v-1.6c0,0-5.2-2.8-5.2-4.7h-7.1c0,1.9-5.3,4.7-5.3,4.7v1.6c2.9,0.6,5.9,1.1,8.8,1.4
	C16.6,26.4,19.5,25.9,22.4,25.3z"/>
<polygon class="st0" points="11.1,38.4 11.1,28.2 9.5,27.7 9.5,38.4 "/>
<path class="st2" d="M11.1,38.4v1.4c0,0.4-0.6,0.9-0.6,0.9h-0.5c0,0-0.6-0.5-0.6-0.9v-1.4H11.1z"/>
<path class="st2" d="M17.8,38.4v1.4c0,0.4-0.6,0.9-0.6,0.9h-0.5c0,0-0.6-0.5-0.6-0.9v-1.4H17.8z"/>
<polygon class="st0" points="17.8,38.4 17.8,27.7 16.2,28.3 16.2,38.4 "/>
<path class="st1" d="M13.6,21.7c2.3,0,5.8-2.4,6-4.5c0-1.3-0.1-2.7-0.3-4l0.4-0.8c0.3-0.5,0.5-1,0.7-1.5c0.2-0.5,0.5-1,0.7-1.6
	s0.4-1,0.6-1.6s0.3-1,0.4-1.5c0.1-0.5,0.2-0.9,0.2-1.4c0-0.4,0-0.8,0-1.2c0-0.4-0.1-0.7-0.3-1c-0.2-0.3-0.4-0.6-0.7-0.8
	C20.9,1.4,20.5,1.2,20,1c-0.6-0.2-1.2-0.4-1.8-0.5c-0.7-0.2-1.4-0.3-2.1-0.4l-1.4,1.4h-2.2l-1.4-1.4C10.4,0.2,9.7,0.3,9,0.5
	C8.4,0.6,7.8,0.8,7.2,1C6.7,1.2,6.3,1.4,5.9,1.7C5.6,1.9,5.4,2.2,5.2,2.5C5.1,2.8,5,3.2,4.9,3.6c0,0.4,0,0.8,0,1.2
	C5,5.3,5,5.7,5.1,6.2c0.1,0.5,0.3,1,0.4,1.5s0.4,1.1,0.6,1.6s0.4,1.1,0.7,1.6c0.2,0.5,0.5,1,0.7,1.5l0.4,0.8c-0.2,1.3-0.3,2.7-0.3,4
	C7.8,19.3,11.3,21.7,13.6,21.7z"/>
<path class="st0" d="M11.9,3.2l-0.9-1c-0.5,0.1-1,0.1-1.5,0.2C9.1,2.6,8.7,2.7,8.3,2.9C8,3,7.7,3.1,7.4,3.3C7.2,3.5,7.1,3.7,6.9,3.9
	C6.8,4.1,6.8,4.4,6.7,4.6c0,0.3,0,0.6,0,0.8c0,0.3,0.1,0.6,0.1,1c0.1,0.3,0.2,0.7,0.3,1s0.2,0.7,0.4,1.1S7.8,9.2,8,9.6
	c0.2,0.4,0.4,0.9,0.6,1.2c0.1,0.2,1,2.5,1.1,2.7l2.2,0.7L11.9,3.2z"/>
<line class="st3" x1="13.6" y1="1.6" x2="13.6" y2="10"/>
<path class="st2" d="M13.6,4.3L13.6,4.3c0.5,0,0.9,0.4,0.9,0.9v1.4c0,0.5-0.4,0.9-0.9,0.9h0c-0.5,0-0.9-0.4-0.9-0.9V5.2
	C12.7,4.7,13.1,4.3,13.6,4.3z"/>
<path class="st2" d="M13.6,9.9L13.6,9.9c0.3,0,0.5,0.2,0.5,0.5v0.3c0,0.3-0.2,0.5-0.5,0.5h0c-0.3,0-0.5-0.2-0.5-0.5v-0.3
	C13.1,10.1,13.3,9.9,13.6,9.9z"/>
<path class="st0" d="M15.4,3.2l0.9-1c0.5,0.1,1,0.1,1.5,0.2c0.4,0.1,0.8,0.2,1.2,0.4c0.3,0.1,0.6,0.3,0.9,0.5
	c0.2,0.1,0.3,0.3,0.5,0.6c0.1,0.2,0.2,0.5,0.2,0.7c0,0.3,0,0.6,0,0.8c0,0.3-0.1,0.6-0.1,1c-0.1,0.3-0.2,0.7-0.3,1s-0.2,0.7-0.4,1.1
	s-0.3,0.7-0.5,1.1s-0.4,0.9-0.6,1.2c-0.1,0.2-1,2.5-1.1,2.7l-2.2,0.7L15.4,3.2z"/>
<path class="st2" d="M15.6,28.5c-0.5-0.1-1.4-0.8-1.9-0.8s-1.4,0.7-1.9,0.8L1.2,24.6c-0.7-0.1-1.1-0.8-1-1.5c0-0.1,0.1-0.2,0.1-0.3
	c0.5-1,1.2-2.3,1.9-2.4c0.4-0.1,1.7,0.7,1.7,0.7s1-1.4,1.5-1.6c0.8-0.1,3.1,1.4,3.1,1.4c1.3,1.6,3.2,2.6,5.2,2.6c2.1,0,4-1,5.3-2.6
	c0,0,2.2-1.5,3.1-1.4c0.6,0.1,1.5,1.6,1.5,1.6s1.2-0.8,1.7-0.7c0.7,0.2,1.4,1.4,1.9,2.4c0.3,0.6,0,1.4-0.6,1.7
	c-0.1,0-0.2,0.1-0.3,0.1L15.6,28.5z"/>
<path class="st4" d="M9.6,28"/>
<circle class="st5" cx="10.7" cy="15.9" r="1.2"/>
<path class="st6" d="M10,15.7c0.3,0,0.3-0.1,0.2-0.4c0.3,0.1,0.3,0,0.3-0.2c0.2,0.2,0.3,0.2,0.4,0c0,0.3,0.1,0.3,0.4,0.2
	c-0.1,0.2,0,0.3,0.2,0.3c-0.2,0.2-0.2,0.3,0,0.4c-0.3,0-0.3,0.1-0.2,0.4c-0.3-0.1-0.3,0-0.3,0.2c-0.2-0.2-0.3-0.2-0.4,0
	c0-0.3-0.1-0.3-0.4-0.2c0.1-0.2,0-0.3-0.2-0.3C10.2,15.9,10.2,15.9,10,15.7z"/>
<circle class="st7" cx="10.7" cy="15.9" r="0.4"/>
<circle class="st5" cx="16.5" cy="15.9" r="1.2"/>
<path class="st6" d="M17.3,15.7c-0.3,0-0.3-0.1-0.2-0.4c-0.3,0.1-0.3,0-0.3-0.2c-0.2,0.2-0.3,0.2-0.4,0c0,0.3-0.1,0.3-0.4,0.2
	c0.1,0.2,0,0.3-0.2,0.3c0.2,0.2,0.2,0.3,0,0.4c0.3,0,0.3,0.1,0.2,0.4c0.3-0.1,0.3,0,0.3,0.2c0.2-0.2,0.3-0.2,0.4,0
	c0-0.3,0.1-0.3,0.4-0.2c-0.1-0.2,0-0.3,0.2-0.3C17.1,15.9,17.1,15.9,17.3,15.7z"/>
<circle class="st7" cx="16.5" cy="15.9" r="0.4"/>
<line class="st3" x1="13.3" y1="7" x2="14" y2="7"/>
<line class="st3" x1="13.2" y1="6.5" x2="14.1" y2="6.5"/>
<line class="st3" x1="13.1" y1="5.9" x2="14.1" y2="5.9"/>
<line class="st3" x1="13.2" y1="5.4" x2="14.1" y2="5.4"/>
<line class="st3" x1="13.3" y1="4.9" x2="14" y2="4.9"/>
<path class="st3" d="M15.2,19c-1,0.6-2.2,0.6-3.2,0"/>
</svg>
