<svg id="Hooded_Mouse" data-name="Hooded Mouse" xmlns="http://www.w3.org/2000/svg" viewBox="0 0 27.36328 40.89112"><title>hoodedmouselogo_v6</title><path d="M12.579,3.00259h4.98071a.60564.60564,0,0,1,.60564.60564h0a.60564.60564,0,0,1-.60564.60564H12.579a.60564.60564,0,0,1-.60564-.60564h0A.60564.60564,0,0,1,12.579,3.00259Z" transform="translate(-1.42839 -2.15444)" style="fill:#666c7d;stroke:#333;stroke-linecap:round;stroke-linejoin:round;stroke-width:0.25px"/><path id="Half_Neck" data-name="Half Neck" d="M23.86918,27.427V25.84514s-5.20669-2.81125-5.20669-4.71856H11.60272c0,1.91635-5.3242,4.71856-5.3242,4.71856V27.427a75.94792,75.94792,0,0,0,8.82245,1.383A74.56085,74.56085,0,0,0,23.86918,27.427Z" transform="translate(-1.42839 -2.15444)" style="fill:#e6e6e6;stroke:#333;stroke-linecap:round;stroke-linejoin:round;stroke-width:0.25px"/><polygon points="11.105 38.416 11.105 28.238 9.523 27.695 9.523 38.416 11.105 38.416" style="fill:#666c7d;stroke:#333;stroke-linecap:round;stroke-linejoin:round;stroke-width:0.25px"/><path d="M12.53378,40.57032v1.4463c0,.41581-.5514.90394-.5514.90394h-.47909s-.5514-.52429-.5514-.90394v-1.4463Z" transform="translate(-1.42839 -2.15444)" style="fill:#1fe84f;stroke:#333;stroke-linecap:round;stroke-linejoin:round;stroke-width:0.25px"/><path d="M19.25,40.57032v1.4463c0,.41581-.5514.90394-.5514.90394h-.47909s-.5514-.52429-.5514-.90394v-1.4463Z" transform="translate(-1.42839 -2.15444)" style="fill:#1fe84f;stroke:#333;stroke-linecap:round;stroke-linejoin:round;stroke-width:0.25px"/><polygon points="17.822 38.416 17.822 27.695 16.24 28.252 16.24 38.416 17.822 38.416" style="fill:#666c7d;stroke:#333;stroke-linecap:round;stroke-linejoin:round;stroke-width:0.25px"/><path d="M15.04673,23.87455c2.27793,0,5.76713-2.4316,5.98408-4.5197a21.89349,21.89349,0,0,0-.28022-3.96829l.40677-.80451q.37966-.76835.73219-1.54574c.235-.52428.461-1.04857.66892-1.58189s.39773-1.04857.56044-1.57285.2983-1.00337.40677-1.50958a10.3953,10.3953,0,0,0,.18079-1.41918,5.87559,5.87559,0,0,0,0-1.24744,3.29033,3.29033,0,0,0-.30734-1.03953,2.37736,2.37736,0,0,0-.65988-.81355,5.053,5.053,0,0,0-1.28359-.696A12.00432,12.00432,0,0,0,19.64778,2.632a21.00759,21.00759,0,0,0-2.09714-.35254l-1.383,1.41015H13.92584l-1.383-1.41015a21.00757,21.00757,0,0,0-2.1333.35254,12.00433,12.00433,0,0,0-1.80788.52428,5.053,5.053,0,0,0-1.28359.696,2.37736,2.37736,0,0,0-.65988.81355,3.29034,3.29034,0,0,0-.30734,1.03953,5.87559,5.87559,0,0,0,0,1.24744,10.39536,10.39536,0,0,0,.18079,1.40111c.10847.50621.2531,1.01241.40677,1.50958S7.3,10.9211,7.49883,11.43635s.43389,1.05761.66892,1.58189.47909,1.03953.73219,1.54574l.40677.80451a21.89341,21.89341,0,0,0-.28022,4.00445C9.24344,21.43392,12.7688,23.87455,15.04673,23.87455Z" transform="translate(-1.42839 -2.15444)" style="fill:#e6e6e6;stroke:#333;stroke-linecap:round;stroke-linejoin:round;stroke-width:0.25px"/><path d="M13.31116,5.389l-.90394-.96722a14.32745,14.32745,0,0,0-1.45534.235,8.18065,8.18065,0,0,0-1.22032.36158,3.444,3.444,0,0,0-.90394.47909,1.62709,1.62709,0,0,0-.452.5514,2.25081,2.25081,0,0,0-.20791.70507,4.00445,4.00445,0,0,0,0,.8497,7.08694,7.08694,0,0,0,.14463.95818c.07232.3435.17175.687.28022,1.03049s.24406.72315.37965,1.07569.2983.72315.452,1.07569.41581.90394.58756,1.2384c.09039.18079,1.04857,2.531,1.148,2.71182l2.16945.74123Z" transform="translate(-1.42839 -2.15444)" style="fill:#666c7d;stroke:#333;stroke-linecap:round;stroke-linejoin:round;stroke-width:0.25px"/><line x1="13.62738" y1="1.56226" x2="13.62738" y2="10.04122" style="fill:none;stroke:#333;stroke-linecap:round;stroke-linejoin:round;stroke-width:0.25px"/><rect x="12.7144" y="4.29216" width="1.835" height="3.19995" rx="0.91298" ry="0.91298" style="fill:#666c7d;stroke:#333;stroke-linecap:round;stroke-linejoin:round;stroke-width:0.25px"/><rect x="13.10309" y="9.90563" width="1.05761" height="1.36495" rx="0.52428" ry="0.52428" style="fill:#1fe84f;stroke:#333;stroke-linecap:round;stroke-linejoin:round;stroke-width:0.25px"/><path d="M16.80037,5.389l.90394-.96722a14.32753,14.32753,0,0,1,1.48246.24406,8.18062,8.18062,0,0,1,1.22032.36158,3.444,3.444,0,0,1,.90394.47909,1.6271,1.6271,0,0,1,.452.5514,2.25079,2.25079,0,0,1,.20791.70507,4.00451,4.00451,0,0,1,0,.8497,7.08681,7.08681,0,0,1-.14463.95818c-.07232.3435-.17175.687-.28022,1.03049s-.24406.72315-.37965,1.07569-.2983.72315-.452,1.07569-.41581.90394-.58756,1.2384c-.09039.18079-1.04857,2.531-1.148,2.71182l-2.16945.74123Z" transform="translate(-1.42839 -2.15444)" style="fill:#666c7d;stroke:#333;stroke-linecap:round;stroke-linejoin:round;stroke-width:0.25px"/><path d="M17.00828,30.64506c-.53332-.05424-1.43726-.79547-1.90731-.79547s-1.36495.74123-1.87115.79547L2.5814,26.78524a1.28359,1.28359,0,0,1-.90394-1.80788c.48813-1.01241,1.21128-2.25081,1.89827-2.44064.44293-.11751,1.65421.73219,1.65421.73219s.96722-1.43726,1.54574-1.55478c.84066-.14463,3.07339,1.36495,3.07339,1.36495a6.86994,6.86994,0,0,0,5.20669,2.60335A7.05977,7.05977,0,0,0,20.38,23.07909s2.23273-1.51862,3.07339-1.36495c.57852.09943,1.5367,1.57285,1.5367,1.57285s1.21128-.8497,1.65421-.73219c.687.18079,1.41015,1.42822,1.89827,2.4316a1.28359,1.28359,0,0,1-.90394,1.80788Z" transform="translate(-1.42839 -2.15444)" style="fill:#1fe84f;stroke:#333;stroke-linecap:round;stroke-linejoin:round;stroke-width:0.25px"/><path d="M10.99708,30.175" transform="translate(-1.42839 -2.15444)" style="fill:#1fe84f;stroke:#333;stroke-linecap:round;stroke-linejoin:round;stroke-width:0.25px"/><circle cx="10.72573" cy="15.88066" r="1.15704" style="fill:#fff;stroke:#333;stroke-linecap:round;stroke-linejoin:round;stroke-width:0.25px"/><path d="M11.39481,17.89048c.26214-.0452.30734-.12655.17175-.36158.2531.09943.32542.0452.32542-.21695.17175.20791.26214.19887.39773,0,.0452.26214.13559.30734.36158.17175-.09943.24406-.0452.32542.226.32542-.20791.17175-.19887.26214,0,.39773-.26214.0452-.30734.12655-.17175.36158-.2531-.09943-.32542-.0452-.32542.21695-.17175-.20791-.26214-.19887-.39773,0-.0452-.26214-.13559-.30734-.36158-.17175.09943-.24406.0452-.32542-.226-.32542C11.62984,18.09838,11.6208,18.02607,11.39481,17.89048Z" transform="translate(-1.42839 -2.15444)" style="fill:#1fe84f"/><circle cx="10.72573" cy="15.88066" r="0.37965" style="fill:#333"/><circle cx="16.53806" cy="15.88066" r="1.15704" style="fill:#fff;stroke:#333;stroke-linecap:round;stroke-linejoin:round;stroke-width:0.25px"/><path d="M18.72576,17.89048c-.26214-.0452-.30734-.12655-.17175-.36158-.2531.09943-.32542.0452-.32542-.21695-.17175.20791-.26214.19887-.39773,0-.0452.26214-.13559.30734-.36158.17175.09943.24406.0452.32542-.226.32542.20791.17175.19887.26214,0,.39773.26214.0452.30734.12655.17175.36158.2531-.09943.32542-.0452.32542.21695.17175-.20791.26214-.19887.39773,0,.0452-.26214.13559-.30734.36158-.17175-.09943-.24406-.0452-.32542.226-.32542C18.4817,18.09838,18.49074,18.02607,18.72576,17.89048Z" transform="translate(-1.42839 -2.15444)" style="fill:#1fe84f"/><circle cx="16.53806" cy="15.88066" r="0.37965" style="fill:#333"/><line x1="13.2819" y1="7.01302" x2="13.9819" y2="7.01302" style="fill:#666c7d;stroke:#333;stroke-linecap:round;stroke-linejoin:round;stroke-width:0.25px"/><line x1="13.1819" y1="6.45258" x2="14.0819" y2="6.45258" style="fill:#666c7d;stroke:#333;stroke-linecap:round;stroke-linejoin:round;stroke-width:0.25px"/><line x1="13.1319" y1="5.89213" x2="14.1319" y2="5.89213" style="fill:#666c7d;stroke:#333;stroke-linecap:round;stroke-linejoin:round;stroke-width:0.25px"/><line x1="13.17286" y1="5.36785" x2="14.07286" y2="5.36785" style="fill:#666c7d;stroke:#333;stroke-linecap:round;stroke-linejoin:round;stroke-width:0.25px"/><line x1="13.28642" y1="4.8526" x2="13.98642" y2="4.8526" style="fill:#666c7d;stroke:#333;stroke-linecap:round;stroke-linejoin:round;stroke-width:0.25px"/><path d="M16.66478,21.13562a3.30842,3.30842,0,0,1-3.218,0" transform="translate(-1.42839 -2.15444)" style="fill:none;stroke:#333;stroke-linecap:round;stroke-linejoin:round;stroke-width:0.25px"/></svg>