<?xml version="1.0" encoding="utf-8"?>
<!-- Generator: Adobe Illustrator 25.4.1, SVG Export Plug-In . SVG Version: 6.00 Build 0)  -->
<svg version="1.1" xmlns="http://www.w3.org/2000/svg" xmlns:xlink="http://www.w3.org/1999/xlink" x="0px" y="0px"
	 viewBox="0 0 24 24" style="enable-background:new 0 0 24 24;" xml:space="preserve">
<style type="text/css">
	.st0{fill:none;stroke:#198581;stroke-width:0.25;stroke-linecap:round;stroke-linejoin:round;}
	.st1{fill:#198581;stroke:#198581;stroke-width:0.25;stroke-miterlimit:10;}
	.st2{fill:#198581;stroke:#198581;stroke-width:0.25;stroke-linecap:round;stroke-linejoin:round;}
	.st3{display:none;}
	.st4{display:inline;}
	.st5{fill:none;stroke:#198581;stroke-width:0.25;stroke-miterlimit:10;}
	.st6{fill:none;stroke:#198581;stroke-width:0.5;stroke-miterlimit:10;}
	.st7{fill:none;stroke:#198581;stroke-width:0.5;stroke-linecap:round;stroke-linejoin:round;}
	.st8{fill:none;}
</style>
<g id="about_2">
	<g>
		<ellipse class="st0" cx="12" cy="12" rx="8" ry="8"/>
		<path class="st0" d="M13.6,12.2c-0.2-0.1-0.4-0.3-0.6-0.3c0.2-0.3,0.5-0.6,0.6-1c0-0.3,0-0.6,0-1c0,0,0.5-0.1,0.6-0.3
			c0.2-0.4,0.3-0.8,0.3-1.3c-0.2-0.5-0.7-0.4-0.6-0.3c0-0.7-0.1-1.3-0.3-1.9c-0.4-0.4-1-0.7-1.6-0.6c-0.6,0-1.2,0.2-1.6,0.6
			c-0.2,0.6-0.3,1.3-0.3,1.9c0-0.1-0.5-0.2-0.6,0.3c0,0.4,0.1,0.9,0.3,1.3c0.2,0.2,0.6,0.3,0.6,0.3c0,0.3,0,0.6,0,1
			c0.2,0.3,0.4,0.7,0.6,1c-0.2,0.1-0.4,0.2-0.6,0.3"/>
		<polygon class="st1" points="11.2,17.7 11.2,14.5 10.7,14.3 10.7,17.7 		"/>
		<path class="st0" d="M11.2,17.7v0.5c0,0.1-0.2,0.3-0.2,0.3h-0.2c0,0-0.2-0.2-0.2-0.3v-0.5H11.2z"/>
		<path class="st0" d="M13.3,17.7v0.5c0,0.1-0.2,0.3-0.2,0.3H13c0,0-0.2-0.2-0.2-0.3v-0.5H13.3z"/>
		<polygon class="st2" points="13.3,17.7 13.3,14.3 12.8,14.5 12.8,17.7 		"/>
		<path class="st0" d="M12.6,14.5c-0.2,0-0.5-0.3-0.6-0.3c-0.2,0-0.4,0.2-0.6,0.3L8,13.3c-0.2,0-0.4-0.3-0.3-0.5c0,0,0-0.1,0-0.1
			c0.2-0.3,0.4-0.7,0.6-0.8c0.1,0,0.5,0.2,0.5,0.2s0.3-0.5,0.5-0.5c0.3,0,1,0.4,1,0.4c0.4,0.5,1,0.8,1.7,0.8c0.7,0,1.3-0.3,1.7-0.8
			c0,0,0.7-0.5,1-0.4c0.2,0,0.5,0.5,0.5,0.5s0.4-0.3,0.5-0.2c0.2,0.1,0.5,0.5,0.6,0.8c0.1,0.2,0,0.4-0.2,0.5c0,0,0,0,0,0
			c0,0-0.1,0-0.1,0L12.6,14.5z"/>
	</g>
</g>
<g id="Layer_2" class="st3">
	<g class="st4">
		<polygon class="st0" points="9.4,8.3 14.6,8.3 14.6,15.7 9.4,15.7 		"/>
		<ellipse class="st5" cx="12" cy="16.4" rx="0.4" ry="0.4"/>
		<ellipse class="st5" cx="10.9" cy="7.6" rx="0.2" ry="0.2"/>
		<path class="st6" d="M10.1,6.8h3.9c0.4,0,0.6,0.3,0.6,0.7v9.1c0,0.4-0.3,0.7-0.6,0.7h-3.9c-0.4,0-0.6-0.3-0.6-0.7V7.4
			C9.4,7.1,9.7,6.8,10.1,6.8z"/>
		<path class="st0" d="M12.9,7.6c0,0.1-0.1,0.2-0.2,0.2h-1.1c-0.1,0-0.2,0-0.2-0.1s0-0.2,0.1-0.2c0,0,0,0,0.1,0h1.1
			C12.8,7.4,12.9,7.5,12.9,7.6z"/>
		<ellipse class="st7" cx="12" cy="12" rx="8" ry="8"/>
	</g>
</g>
<g id="Layer_3" class="st3">
	<g class="st4">
		<path class="st6" d="M15.4,12.3h1.9V15c0,0.4-0.4,0.8-0.8,0.8H7.5c-0.4,0-0.8-0.4-0.8-0.8v-2.7h1.9"/>
		<line class="st6" x1="9.6" y1="12.3" x2="14.4" y2="12.3"/>
		<path class="st6" d="M15.4,12.3h1.9V9.6c0-0.1-0.1-0.1-0.2-0.1H6.9c-0.1,0-0.2,0.1-0.2,0.1v2.8h1.9"/>
		<line class="st8" x1="11.2" y1="11.8" x2="12.8" y2="11.8"/>
		<polyline class="st5" points="8.6,13.1 8.6,11.8 8.3,11.8 		"/>
		<polyline class="st5" points="9.6,13.6 9.6,13.9 9.1,14.6 8.6,13.9 8.6,13.6 		"/>
		<polyline class="st5" points="8.5,11.8 9.6,11.8 9.9,11.8 9.6,11.8 9.6,13.1 		"/>
		<rect x="8.1" y="13.1" class="st1" width="2" height="0.5"/>
		<polyline class="st5" points="14.4,13.1 14.4,11.8 14.1,11.8 		"/>
		<polyline class="st5" points="15.4,13.6 15.4,13.9 14.9,14.6 14.4,13.9 14.4,13.6 		"/>
		<polyline class="st5" points="14.4,11.8 15.5,11.8 15.7,11.8 15.4,11.8 15.4,13.1 		"/>
		<rect x="14" y="13.1" class="st1" width="2" height="0.5"/>
		<path class="st6" d="M10.1,9.4h3.7v-1c0-0.2-0.1-0.3-0.3-0.3h-3.1c-0.2,0-0.3,0.1-0.3,0.3V9.4z"/>
		<ellipse class="st6" cx="12" cy="12" rx="8" ry="8"/>
	</g>
</g>
</svg>
