<svg id="sea_foam" data-name="sea foam" xmlns="http://www.w3.org/2000/svg" viewBox="0 0 375 560"><defs><style>.cls-1,.cls-4,.cls-7{fill:#333;}.cls-1,.cls-2,.cls-3,.cls-4,.cls-5,.cls-6{stroke:#333;stroke-linecap:round;stroke-linejoin:round;}.cls-1,.cls-2,.cls-3,.cls-5,.cls-6{stroke-width:2px;}.cls-2{fill:#00b2aa;}.cls-3{fill:#d7d6da;}.cls-4{stroke-width:0.15px;}.cls-5{fill:#d6d7da;}.cls-6{fill:none;}</style></defs><title>hmlogo_seafoam</title><polygon class="cls-1" points="152.058 526.731 152.058 386.994 130.296 379.536 130.296 526.731 152.058 526.731"/><path class="cls-2" d="M157.05825,536.73134V556.589c0,5.70906-7.5857,12.411-7.5857,12.411H142.8817s-7.5857-7.19842-7.5857-12.411V536.73134Z" transform="translate(-5 -10)"/><path class="cls-2" d="M249.45463,536.73134V556.589c0,5.70906-7.58571,12.411-7.58571,12.411h-6.59087s-7.58571-7.19842-7.58571-12.411V536.73134Z" transform="translate(-5 -10)"/><polygon class="cls-1" points="244.455 526.731 244.455 379.536 222.692 387.176 222.692 526.731 244.455 526.731"/><path id="Half_Neck" data-name="Half Neck" class="cls-3" d="M138.37191,286.00876l107.52992-.788c0,3.33228-1.32058,7.68106,1.9214,7.96592,2.60594.229,9.78474-.73977,16.9421,3.11229v38.60933H120.23467V296.35514c7.15736-3.85206,13.6099-2.93946,16.21584-3.16843C139.69249,292.90185,138.37191,289.341,138.37191,286.00876Z" transform="translate(-5 -10)"/><path class="cls-2" d="M218.61439,400.45818c-7.337-.74465-19.77258-10.9217-26.23909-10.9217s-18.77773,10.17705-25.74165,10.9217L20.14248,347.46309A17.60992,17.60992,0,0,1,7.7069,322.641c6.71521-13.90037,16.66368-30.90347,26.11472-33.5098,6.09344-1.61342,22.75712,10.05293,22.75712,10.05293s13.30607-19.73354,21.26484-21.347c11.56509-1.98576,42.281,18.74067,42.281,18.74067a94.57476,94.57476,0,0,0,71.629,35.74376,97.19208,97.19208,0,0,0,73.24558-35.74379s30.71588-20.85054,42.281-18.74066c7.95876,1.36522,21.1405,21.59519,21.1405,21.59519s16.66368-11.66637,22.75711-10.05293c9.45105,2.48222,19.39951,19.60943,26.11473,33.38569a17.63109,17.63109,0,0,1-12.43558,24.82206Z" transform="translate(-5 -10)"/><path class="cls-4" d="M158.24,17.11751H226.76c4.60155,0,8.33184,4.57612,8.33184,10.22105h0c0,5.64493-3.73029,10.221-8.33184,10.221H158.24c-4.60154,0-8.33184-4.57612-8.33184-10.221h0C149.90813,21.69363,153.63843,17.11751,158.24,17.11751Z" transform="translate(-5 -10)"/><path class="cls-5" d="M192.74871,307.49955c31.33768,0,79.339-33.38568,82.32358-62.05516A300.01448,300.01448,0,0,0,271.21724,190.96l5.596-11.04582q5.223-10.5494,10.07282-21.22287c3.23325-7.1984,6.34215-14.3968,9.20232-21.71931s5.47167-14.39679,7.71008-21.59519,4.10374-13.77625,5.596-20.72643A142.459,142.459,0,0,0,311.8816,75.165a80.51333,80.51333,0,0,0,0-17.12723,45.10937,45.10937,0,0,0-4.2281-14.27269,32.65378,32.65378,0,0,0-9.078-11.16993A69.558,69.558,0,0,0,280.917,23.0387a165.39539,165.39539,0,0,0-24.87117-7.1984A289.52662,289.52662,0,0,0,227.19529,11L208.16883,30.36121H177.32859L158.30214,11a289.52881,289.52881,0,0,0-29.348,4.8403A165.39539,165.39539,0,0,0,104.083,23.0387a69.55783,69.55783,0,0,0-17.65852,9.5565,32.65368,32.65368,0,0,0-9.078,11.16992,45.10963,45.10963,0,0,0-4.2281,14.27269,80.51333,80.51333,0,0,0,0,17.12723,142.45867,142.45867,0,0,0,2.48712,19.23709c1.49227,6.95018,3.482,13.90036,5.596,20.72642s4.97423,14.52091,7.71006,21.5952,5.96908,14.52091,9.20233,21.7193,6.59085,14.27269,10.07283,21.22287l5.596,11.04582a300.01239,300.01239,0,0,0-3.855,54.98088C112.91227,273.98978,161.411,307.49955,192.74871,307.49955Z" transform="translate(-5 -10)"/><path class="cls-1" d="M167.75285,53.694l-12.43558-13.2798A197.46228,197.46228,0,0,0,135.296,43.641a112.71126,112.71126,0,0,0-16.788,4.96442,47.41155,47.41155,0,0,0-12.43558,6.57784A22.34912,22.34912,0,0,0,99.85457,62.754a30.85785,30.85785,0,0,0-2.86019,9.6806,54.87379,54.87379,0,0,0,0,11.66637,97.12643,97.12643,0,0,0,1.98969,13.15569c.99486,4.7162,2.36277,9.43239,3.855,14.14858s3.35762,9.92883,5.22295,14.76914,4.10374,9.92883,6.21779,14.76913,5.72037,12.411,8.08313,17.00312c1.24356,2.4822,14.42527,34.75089,15.79318,37.23309l29.8454,10.17706Z" transform="translate(-5 -10)"/><line class="cls-6" x1="187.5" y1="20.73354" x2="187.5" y2="137.14903"/><path class="cls-2" d="M192.43783,68.21486h.12434A12.54756,12.54756,0,0,1,205.12212,80.75V99.61477a12.54757,12.54757,0,0,1-12.55995,12.53515h-.12434a12.54757,12.54757,0,0,1-12.55995-12.53515V80.75A12.54756,12.54756,0,0,1,192.43783,68.21486Z" transform="translate(-5 -10)"/><path class="cls-2" d="M192.43782,145.28736h.12436c3.98343,0,7.21264,3.78358,7.21264,8.45084v5.09965c0,4.66727-3.22921,8.45084-7.21264,8.45084h-.12436c-3.98343,0-7.21264-3.78357-7.21264-8.45084V153.7382C185.22518,149.07094,188.45439,145.28736,192.43782,145.28736Z" transform="translate(-5 -10)"/><path class="cls-1" d="M215.75421,53.694l12.43558-13.2798a197.46063,197.46063,0,0,1,20.39435,3.351,112.709,112.709,0,0,1,16.788,4.96441,47.411,47.411,0,0,1,12.43559,6.57785,22.34922,22.34922,0,0,1,6.21779,7.57073,30.85765,30.85765,0,0,1,2.86018,9.6806,54.87379,54.87379,0,0,1,0,11.66637,97.12319,97.12319,0,0,1-1.98969,13.1557c-.99485,4.71619-2.36277,9.43238-3.855,14.14858s-3.35761,9.92882-5.22294,14.76913-4.10374,9.92883-6.21779,14.76914-5.72036,12.411-8.08313,17.00311c-1.24356,2.4822-14.42527,34.75089-15.7932,37.2331l-29.84539,10.177Z" transform="translate(-5 -10)"/><ellipse class="cls-2" cx="146.22871" cy="217.32428" rx="15.91754" ry="15.88613"/><ellipse class="cls-7" cx="146.22871" cy="217.32428" rx="6.48158" ry="6.46879"/><ellipse class="cls-2" cx="228.77129" cy="217.32428" rx="15.91756" ry="15.88613"/><ellipse class="cls-7" cx="228.77129" cy="217.32428" rx="6.53462" ry="6.52172"/><line class="cls-6" x1="183.02894" y1="90.35525" x2="191.97106" y2="90.35525"/><line class="cls-6" x1="182.34744" y1="80.50402" x2="192.65256" y2="80.43789"/><line class="cls-6" x1="183.02894" y1="70.1894" x2="191.97106" y2="70.1894"/><path class="cls-6" d="M214.63533,269.89414a45.59286,45.59286,0,0,1-44.27066,0" transform="translate(-5 -10)"/></svg>