<svg id="orange" xmlns="http://www.w3.org/2000/svg" viewBox="0 0 1146.94543 1718.20202"><defs><style>.cls-1,.cls-4,.cls-7{fill:#333;}.cls-1,.cls-2,.cls-3,.cls-4,.cls-5,.cls-6{stroke:#333;stroke-linecap:round;stroke-linejoin:round;}.cls-1,.cls-2,.cls-3,.cls-5,.cls-6{stroke-width:2px;}.cls-2{fill:#ff5722;}.cls-3{fill:#d7d6da;}.cls-4{stroke-width:0.15px;}.cls-5{fill:#d6d7da;}.cls-6{fill:none;}</style></defs><title>hmlogo_large</title><polygon class="cls-1" points="464.682 1617.955 464.682 1188.176 397.882 1165.239 397.882 1617.955 464.682 1617.955"/><path class="cls-2" d="M590.8,1658.695v61.07475c0,17.559-23.28476,38.17175-23.28476,38.17175h-20.231s-23.28475-22.13968-23.28475-38.17175V1658.695Z" transform="translate(-126.11781 -40.73947)"/><path class="cls-2" d="M874.41611,1658.695v61.07475c0,17.559-23.2848,38.17175-23.2848,38.17175h-20.231s-23.2848-22.13968-23.2848-38.17175V1658.695Z" transform="translate(-126.11781 -40.73947)"/><polygon class="cls-1" points="748.298 1617.955 748.298 1165.239 681.498 1188.736 681.498 1617.955 748.298 1617.955"/><path id="Half_Neck" data-name="Half Neck" class="cls-3" d="M533.44116,887.56489l330.06941-2.42348c0,10.24884-4.0536,23.6241,5.89784,24.50022,7.99909.70424,30.03487-2.27526,52.00478,9.57225v118.74806H477.76785V919.38653c21.96991-11.84751,41.77638-9.04066,49.77547-9.7449C537.49476,908.76551,533.44116,897.81374,533.44116,887.56489Z" transform="translate(-126.11781 -40.73947)"/><path class="cls-2" d="M779.75017,1239.56908c-22.52134-2.29029-60.69309-33.59111-80.54242-33.59111s-57.63936,31.30082-79.01552,33.59111L170.529,1076.57574a54.20387,54.20387,0,0,1-38.17175-76.3435c20.61275-42.7524,51.15015-95.04766,80.16068-103.06377,18.70416-4.96229,69.85431,30.9191,69.85431,30.9191s40.84378-60.69309,65.2737-65.65539c35.49973-6.10747,129.784,57.63936,129.784,57.63936a290.10526,290.10526,0,0,0,219.86931,109.93462A298.1215,298.1215,0,0,0,922.1308,920.07147s94.2842-64.12856,129.78395-57.63936c24.4299,4.19892,64.892,66.41884,64.892,66.41884s51.15015-35.88147,69.8543-30.9191c29.01055,7.63438,59.54792,60.31137,80.1607,102.682A54.20392,54.20392,0,0,1,1228.65,1076.9574Z" transform="translate(-126.11781 -40.73947)"/><path class="cls-4" d="M594.42735,60.55467H804.75369c14.12474,0,25.57508,14.07446,25.57508,31.43618h0c0,17.36173-11.45034,31.43619-25.57508,31.43619H594.42735c-14.12471,0-25.57508-14.07446-25.57508-31.43619h0C568.85227,74.62913,580.30264,60.55467,594.42735,60.55467Z" transform="translate(-126.11781 -40.73947)"/><path class="cls-5" d="M700.354,953.66265c96.19284,0,243.53576-102.682,252.69705-190.85877a924.52355,924.52355,0,0,0-11.8333-167.574L958.395,561.257q16.03218-32.446,30.9191-65.2737c9.92466-22.13961,19.4676-44.27923,28.24709-66.80057s16.79559-44.27923,23.66652-66.41884,12.59667-42.37065,17.17732-63.74683a438.97608,438.97608,0,0,0,7.6343-59.92965,248.11468,248.11468,0,0,0,0-52.677,138.94476,138.94476,0,0,0-12.9784-43.89752,100.39152,100.39152,0,0,0-27.86536-34.35458,213.37958,213.37958,0,0,0-54.2039-29.39225,506.9203,506.9203,0,0,0-76.3435-22.13962,887.11484,887.11484,0,0,0-88.55846-14.887l-58.40281,59.54794H653.021L594.61819,41.73947a887.1124,887.1124,0,0,0-90.08533,14.887,506.92076,506.92076,0,0,0-76.34351,22.13962,213.38,213.38,0,0,0-54.20389,29.39225,100.39156,100.39156,0,0,0-27.86538,34.35457,138.94527,138.94527,0,0,0-12.9784,43.89752,248.11468,248.11468,0,0,0,0,52.677,438.97668,438.97668,0,0,0,7.63436,59.16621c4.58061,21.37618,10.6881,42.75238,17.17728,63.74681s15.26871,44.661,23.66648,66.41885,18.32245,44.661,28.24709,66.80057,20.231,43.8975,30.91914,65.2737l17.17728,33.97287a924.52052,924.52052,0,0,0-11.83326,169.10088C455.2913,850.599,604.16113,953.66265,700.354,953.66265Z" transform="translate(-126.11781 -40.73947)"/><path class="cls-1" d="M623.62769,173.05031l-38.17175-40.84378a605.02094,605.02094,0,0,0-61.45651,9.92465,345.45366,345.45366,0,0,0-51.53188,15.26871,145.4343,145.4343,0,0,0-38.17176,20.231,68.709,68.709,0,0,0-19.08587,23.28478,95.04764,95.04764,0,0,0-8.77951,29.774,169.1017,169.1017,0,0,0,0,35.88145,299.26837,299.26837,0,0,0,6.10748,40.46206c3.05375,14.50527,7.25263,29.01054,11.83324,43.51581s10.30639,30.53741,16.03214,45.42441,12.59667,30.53741,19.08587,45.4244,17.559,38.17176,24.81163,52.2953C488.118,501.32742,528.58,600.574,532.77888,608.20834l91.61219,31.30087Z" transform="translate(-126.11781 -40.73947)"/><line class="cls-6" x1="573.47272" y1="61.69309" x2="573.47272" y2="419.74415"/><rect class="cls-2" x="534.72839" y="176.97179" width="77.48865" height="135.12803" rx="38.55348" ry="38.55348"/><path class="cls-2" d="M699.39966,454.75783h.38172c12.22737,0,22.13962,11.63688,22.13962,25.99166v15.68464c0,14.35479-9.91225,25.99166-22.13962,25.99166h-.38172c-12.22737,0-22.13962-11.63687-22.13962-25.99166V480.74949C677.26,466.39471,687.17229,454.75783,699.39966,454.75783Z" transform="translate(-126.11781 -40.73947)"/><path class="cls-1" d="M770.97069,173.05031l38.17175-40.84378a605.02417,605.02417,0,0,1,62.60165,10.30638,345.45269,345.45269,0,0,1,51.53189,15.2687,145.43426,145.43426,0,0,1,38.17175,20.231,68.70958,68.70958,0,0,1,19.08588,23.28478,95.04674,95.04674,0,0,1,8.77948,29.774,169.103,169.103,0,0,1,0,35.88145,299.26336,299.26336,0,0,1-6.10747,40.46206c-3.05374,14.50527-7.25266,29.01054-11.83323,43.51581S961.066,381.4681,955.34026,396.3551s-12.59668,30.53741-19.08588,45.42441-17.559,38.17175-24.81163,52.2953c-3.81719,7.63434-44.27923,106.88092-48.47814,114.51526l-91.6122,31.30086Z" transform="translate(-126.11781 -40.73947)"/><circle class="cls-2" cx="446.78806" cy="666.33364" r="48.85983"/><circle class="cls-7" cx="446.78806" cy="666.33364" r="19.89561"/><circle class="cls-2" cx="700.15737" cy="666.33364" r="48.85987"/><circle class="cls-7" cx="700.15737" cy="666.33364" r="20.0584"/><line class="cls-6" x1="559.74854" y1="275.82376" x2="587.19689" y2="275.82376"/><line class="cls-6" x1="557.65664" y1="245.52502" x2="589.28879" y2="245.32162"/><line class="cls-6" x1="559.74854" y1="213.80107" x2="587.19689" y2="213.80107"/><path class="cls-6" d="M767.53623,838.00228a139.70848,139.70848,0,0,1-135.89142,0" transform="translate(-126.11781 -40.73947)"/></svg>