<svg id="orange" xmlns="http://www.w3.org/2000/svg" viewBox="0 0 375 560"><defs><style>.cls-1,.cls-4,.cls-7{fill:#333;}.cls-1,.cls-2,.cls-3,.cls-4,.cls-5,.cls-6{stroke:#333;stroke-linecap:round;stroke-linejoin:round;}.cls-1,.cls-2,.cls-3,.cls-5,.cls-6{stroke-width:2px;}.cls-2{fill:#ff5722;}.cls-3{fill:#d7d6da;}.cls-4{stroke-width:0.15px;}.cls-5{fill:#d6d7da;}.cls-6{fill:none;}</style></defs><title>hmlogo_ds1</title><polygon class="cls-1" points="152.058 526.731 152.058 386.994 130.296 379.536 130.296 526.731 152.058 526.731"/><path class="cls-2" d="M163.96786,534.23134V554.089c0,5.70906-7.5857,12.411-7.5857,12.411H149.7913s-7.5857-7.19842-7.5857-12.411V534.23134Z" transform="translate(-11.9096 -7.5)"/><path class="cls-2" d="M256.36423,534.23134V554.089c0,5.70906-7.58571,12.411-7.58571,12.411h-6.59087s-7.58571-7.19842-7.58571-12.411V534.23134Z" transform="translate(-11.9096 -7.5)"/><polygon class="cls-1" points="244.455 526.731 244.455 379.536 222.692 387.176 222.692 526.731 244.455 526.731"/><path id="Half_Neck" data-name="Half Neck" class="cls-3" d="M145.28151,283.50876l107.52992-.788c0,3.33228-1.32058,7.68106,1.9214,7.96592,2.60594.229,9.78475-.73977,16.9421,3.11229v38.60933H127.14428V293.85514c7.15735-3.85206,13.60989-2.93946,16.21583-3.16843C146.60209,290.40185,145.28151,286.841,145.28151,283.50876Z" transform="translate(-11.9096 -7.5)"/><path class="cls-2" d="M225.524,397.95818c-7.337-.74465-19.77258-10.9217-26.23909-10.9217s-18.77773,10.17705-25.74165,10.9217L27.05208,344.96309A17.60992,17.60992,0,0,1,14.6165,320.141c6.71521-13.90037,16.66368-30.90347,26.11472-33.5098,6.09344-1.61342,22.75712,10.05293,22.75712,10.05293s13.30608-19.73354,21.26485-21.347c11.56509-1.98576,42.281,18.74067,42.281,18.74067a94.57477,94.57477,0,0,0,71.629,35.74376,97.192,97.192,0,0,0,73.24558-35.74379s30.71588-20.85054,42.281-18.74066c7.95877,1.36522,21.1405,21.59519,21.1405,21.59519s16.66368-11.66637,22.75712-10.05293c9.451,2.48222,19.3995,19.60943,26.11473,33.38569a17.6311,17.6311,0,0,1-12.43559,24.82206Z" transform="translate(-11.9096 -7.5)"/><path class="cls-4" d="M165.14958,14.61751h68.52005c4.60156,0,8.33184,4.57612,8.33184,10.22105h0c0,5.64493-3.73028,10.221-8.33184,10.221H165.14958c-4.60155,0-8.33185-4.57612-8.33185-10.221h0C156.81773,19.19363,160.548,14.61751,165.14958,14.61751Z" transform="translate(-11.9096 -7.5)"/><path class="cls-5" d="M199.65832,304.99955c31.33767,0,79.339-33.38568,82.32357-62.05516A300.01358,300.01358,0,0,0,278.12684,188.46l5.596-11.04582q5.223-10.5494,10.07282-21.22287c3.23325-7.1984,6.34215-14.3968,9.20233-21.71931s5.47166-14.39679,7.71007-21.59519,4.10374-13.77625,5.596-20.72643A142.459,142.459,0,0,0,318.7912,72.665a80.51333,80.51333,0,0,0,0-17.12723,45.10937,45.10937,0,0,0-4.2281-14.27269,32.65378,32.65378,0,0,0-9.078-11.16993A69.558,69.558,0,0,0,287.8266,20.5387a165.39493,165.39493,0,0,0-24.87116-7.1984A289.5273,289.5273,0,0,0,234.10489,8.5L215.07844,27.86121H184.2382L165.21175,8.5a289.52854,289.52854,0,0,0-29.348,4.8403,165.39493,165.39493,0,0,0-24.87116,7.1984,69.55772,69.55772,0,0,0-17.65853,9.5565,32.65368,32.65368,0,0,0-9.078,11.16992A45.10963,45.10963,0,0,0,80.028,55.53781a80.51333,80.51333,0,0,0,0,17.12723,142.46187,142.46187,0,0,0,2.48712,19.23709c1.49227,6.95018,3.482,13.90036,5.596,20.72642s4.97424,14.52091,7.71006,21.5952,5.96908,14.52091,9.20233,21.7193,6.59086,14.27269,10.07283,21.22287l5.596,11.04582a300.01327,300.01327,0,0,0-3.855,54.98088C119.82187,271.48978,168.32064,304.99955,199.65832,304.99955Z" transform="translate(-11.9096 -7.5)"/><path class="cls-1" d="M174.66245,51.194l-12.43558-13.2798A197.46163,197.46163,0,0,0,142.20559,41.141a112.711,112.711,0,0,0-16.788,4.96442A47.41155,47.41155,0,0,0,112.982,52.68327a22.34924,22.34924,0,0,0-6.21779,7.57074,30.85785,30.85785,0,0,0-2.86019,9.6806,54.87379,54.87379,0,0,0,0,11.66637,97.12488,97.12488,0,0,0,1.9897,13.15569c.99485,4.7162,2.36276,9.43239,3.855,14.14858s3.35761,9.92883,5.22294,14.76914,4.10374,9.92883,6.21779,14.76913,5.72037,12.411,8.08313,17.00312c1.24356,2.4822,14.42527,34.75089,15.79318,37.23309l29.8454,10.17706Z" transform="translate(-11.9096 -7.5)"/><line class="cls-6" x1="187.5" y1="20.73354" x2="187.5" y2="137.14903"/><path class="cls-2" d="M199.34743,65.71486h.12435A12.54756,12.54756,0,0,1,212.03172,78.25V97.11477a12.54757,12.54757,0,0,1-12.55994,12.53515h-.12435a12.54756,12.54756,0,0,1-12.55994-12.53515V78.25A12.54755,12.54755,0,0,1,199.34743,65.71486Z" transform="translate(-11.9096 -7.5)"/><path class="cls-2" d="M199.34742,142.78736h.12436c3.98343,0,7.21264,3.78358,7.21264,8.45084v5.09965c0,4.66727-3.22921,8.45084-7.21264,8.45084h-.12436c-3.98342,0-7.21263-3.78357-7.21263-8.45084V151.2382C192.13479,146.57094,195.364,142.78736,199.34742,142.78736Z" transform="translate(-11.9096 -7.5)"/><path class="cls-1" d="M222.66381,51.194l12.43559-13.2798a197.46152,197.46152,0,0,1,20.39435,3.351,112.70969,112.70969,0,0,1,16.788,4.96441,47.41113,47.41113,0,0,1,12.43558,6.57785,22.34922,22.34922,0,0,1,6.21779,7.57073,30.85739,30.85739,0,0,1,2.86018,9.6806,54.87379,54.87379,0,0,1,0,11.66637,97.12319,97.12319,0,0,1-1.98969,13.1557c-.99485,4.71619-2.36277,9.43238-3.855,14.14858s-3.35761,9.92882-5.22294,14.76913-4.10374,9.92883-6.21779,14.76914-5.72036,12.411-8.08313,17.00311c-1.24356,2.4822-14.42527,34.75089-15.79319,37.2331l-29.8454,10.177Z" transform="translate(-11.9096 -7.5)"/><ellipse class="cls-2" cx="146.22871" cy="217.32428" rx="15.91754" ry="15.88613"/><ellipse class="cls-7" cx="146.22871" cy="217.32428" rx="6.48158" ry="6.46879"/><ellipse class="cls-2" cx="228.77129" cy="217.32428" rx="15.91756" ry="15.88613"/><ellipse class="cls-7" cx="228.77129" cy="217.32428" rx="6.53462" ry="6.52172"/><line class="cls-6" x1="183.02894" y1="90.35525" x2="191.97106" y2="90.35525"/><line class="cls-6" x1="182.34744" y1="80.50402" x2="192.65256" y2="80.43789"/><line class="cls-6" x1="183.02894" y1="70.1894" x2="191.97106" y2="70.1894"/><path class="cls-6" d="M221.54494,267.39414a45.59288,45.59288,0,0,1-44.27067,0" transform="translate(-11.9096 -7.5)"/></svg>