<svg id="dark_stroke_with_light_fill" data-name="dark stroke with light fill" xmlns="http://www.w3.org/2000/svg" viewBox="0 0 27.26328 40.79112"><title>hoodedmouselogo_dslf</title><path id="Half_Neck" data-name="Half Neck" d="M11.18244,22.35053c0,.2427.096.502-.13967.52279a2.36663,2.36663,0,0,0-1.17872.23077" transform="translate(-1.49336 -2.22944)" style="fill:none;stroke:#d7d7da;stroke-linecap:round;stroke-linejoin:round;stroke-width:0.15000000596046448px"/><path id="Half_Neck-2" data-name="Half Neck" d="M18.99876,22.29313c0,.24271-.096.55944.13967.58019A2.52876,2.52876,0,0,1,20.37,23.1" transform="translate(-1.49336 -2.22944)" style="fill:none;stroke:#d7d7da;stroke-linecap:round;stroke-linejoin:round;stroke-width:0.15000000596046448px"/><polygon points="11.055 38.366 11.055 28.188 9.473 27.645 9.473 38.366 11.055 38.366" style="fill:none;stroke:#d7d7da;stroke-linecap:round;stroke-linejoin:round;stroke-width:0.15000000596046448px"/><path d="M12.54875,40.59532v1.4463c0,.41581-.5514.90394-.5514.90394h-.47909s-.55141-.52429-.55141-.90394v-1.4463Z" transform="translate(-1.49336 -2.22944)" style="fill:#d7d7da;stroke:#d7d7da;stroke-linecap:round;stroke-linejoin:round;stroke-width:0.15000000596046448px"/><path d="M19.265,40.59532v1.4463c0,.41581-.55141.90394-.55141.90394h-.47908s-.55141-.52429-.55141-.90394v-1.4463Z" transform="translate(-1.49336 -2.22944)" style="fill:#d7d7da;stroke:#d7d7da;stroke-linecap:round;stroke-linejoin:round;stroke-width:0.15000000596046448px"/><polygon points="17.772 38.366 17.772 27.645 16.19 28.202 16.19 38.366 17.772 38.366" style="fill:none;stroke:#d7d7da;stroke-linecap:round;stroke-linejoin:round;stroke-width:0.15000000596046448px"/><path d="M17.02325,30.67006c-.53333-.05423-1.43727-.79546-1.90731-.79546s-1.365.74123-1.87116.79546L2.59637,26.81024a1.28363,1.28363,0,0,1-.90394-1.80788c.48813-1.01241,1.21128-2.25081,1.89828-2.44064.44293-.11751,1.65421.7322,1.65421.7322s.96721-1.43727,1.54573-1.55478c.84067-.14463,3.0734,1.365,3.0734,1.365a6.86994,6.86994,0,0,0,5.20669,2.60334,7.05976,7.05976,0,0,0,5.3242-2.60334s2.23273-1.51862,3.0734-1.365c.57852.09943,1.53669,1.57285,1.53669,1.57285s1.21128-.8497,1.65421-.73219c.687.18079,1.41015,1.42823,1.89828,2.4316a1.28361,1.28361,0,0,1-.90394,1.80788Z" transform="translate(-1.49336 -2.22944)" style="fill:#d7d7da;stroke:#d7d7da;stroke-linecap:round;stroke-linejoin:round;stroke-width:0.15000000596046448px"/><path d="M11.01205,30.2" transform="translate(-1.49336 -2.22944)" style="fill:none;stroke:#d7d7da;stroke-linecap:round;stroke-linejoin:round;stroke-width:0.15000000596046448px"/><polygon points="15.635 0.521 11.501 0.521 12.447 1.485 14.689 1.485 15.635 0.521" style="fill:#d7d7da;stroke:#d7d7da;stroke-linecap:round;stroke-linejoin:round;stroke-width:0.15000000596046448px"/><path d="M15.0617,23.89955c2.27793,0,5.76713-2.43159,5.98408-4.51969a21.89373,21.89373,0,0,0-.28022-3.9683l.40677-.8045q.37965-.76836.73219-1.54574c.235-.52428.461-1.04857.66892-1.58189s.39773-1.04857.56044-1.57286.2983-1.00337.40677-1.50958a10.39411,10.39411,0,0,0,.18079-1.41918,5.875,5.875,0,0,0,0-1.24744,3.2902,3.2902,0,0,0-.30734-1.03953,2.37734,2.37734,0,0,0-.65987-.81355,5.053,5.053,0,0,0-1.2836-.696A12.00441,12.00441,0,0,0,19.66275,2.657a21.00691,21.00691,0,0,0-2.09714-.35254l-1.383,1.41015H13.94081l-1.383-1.41015a21.00479,21.00479,0,0,0-2.1333.35254,12.00475,12.00475,0,0,0-1.80788.52428,5.053,5.053,0,0,0-1.28359.696,2.37748,2.37748,0,0,0-.65988.81355A3.29046,3.29046,0,0,0,6.3658,5.73037a5.87631,5.87631,0,0,0,0,1.24744,10.39416,10.39416,0,0,0,.18079,1.4011c.10847.50621.2531,1.01242.40677,1.50958s.36158,1.05761.56044,1.57286.4339,1.05761.66892,1.58189.47909,1.03953.73219,1.54574l.40677.8045a21.8935,21.8935,0,0,0-.28022,4.00446C9.25841,21.45892,12.78377,23.89955,15.0617,23.89955Z" transform="translate(-1.49336 -2.22944)" style="fill:none;stroke:#d7d7da;stroke-linecap:round;stroke-linejoin:round;stroke-width:0.15000000596046448px"/><path d="M13.32614,5.414l-.90394-.96721a14.32686,14.32686,0,0,0-1.45535.235,8.17966,8.17966,0,0,0-1.22031.36158,3.444,3.444,0,0,0-.90394.47908,1.62708,1.62708,0,0,0-.452.55141,2.25089,2.25089,0,0,0-.20791.70507,4.005,4.005,0,0,0,0,.8497,7.08748,7.08748,0,0,0,.14463.95818c.07232.3435.17175.687.28022,1.03049s.24407.72315.37966,1.07569.2983.72315.452,1.07569.41581.90394.58756,1.2384c.09039.18078,1.04857,2.531,1.148,2.71181l2.16945.74123Z" transform="translate(-1.49336 -2.22944)" style="fill:#d7d7da;stroke:#d7d7da;stroke-linecap:round;stroke-linejoin:round;stroke-width:0.15000000596046448px"/><line x1="13.58642" y1="7.44211" x2="13.57738" y2="9.85563" style="fill:none;stroke:#d7d7da;stroke-linecap:round;stroke-linejoin:round;stroke-width:0.15000000596046448px"/><line x1="13.57738" y1="1.51226" x2="13.58642" y2="4.24216" style="fill:none;stroke:#d7d7da;stroke-linecap:round;stroke-linejoin:round;stroke-width:0.15000000596046448px"/><rect x="12.6644" y="4.24216" width="1.835" height="3.19995" rx="0.91298" ry="0.91298" style="fill:none;stroke:#d7d7da;stroke-linecap:round;stroke-linejoin:round;stroke-width:0.15000000596046448px"/><path d="M15.07074,12.08507h.009a.57541.57541,0,0,1,.52428.6155V13.072a.57541.57541,0,0,1-.52428.6155h-.009a.57541.57541,0,0,1-.52429-.6155v-.37143A.57541.57541,0,0,1,15.07074,12.08507Z" transform="translate(-1.49336 -2.22944)" style="fill:none;stroke:#d7d7da;stroke-linecap:round;stroke-linejoin:round;stroke-width:0.15000000596046448px"/><path d="M16.81534,5.414l.90394-.96721a14.32837,14.32837,0,0,1,1.48246.24406,8.17943,8.17943,0,0,1,1.22032.36158,3.444,3.444,0,0,1,.90394.47908,1.62708,1.62708,0,0,1,.452.55141,2.25089,2.25089,0,0,1,.20791.70507,4.005,4.005,0,0,1,0,.8497,7.08748,7.08748,0,0,1-.14463.95818c-.07232.3435-.17175.687-.28022,1.03049s-.24407.72315-.37966,1.07569-.2983.72315-.452,1.07569-.41581.90394-.58756,1.23839c-.09039.18079-1.04857,2.531-1.148,2.71182l-2.16946.74123Z" transform="translate(-1.49336 -2.22944)" style="fill:#d7d7da;stroke:#d7d7da;stroke-linecap:round;stroke-linejoin:round;stroke-width:0.15000000596046448px"/><circle cx="10.67573" cy="15.83067" r="1.15704" style="fill:none;stroke:#d7d7da;stroke-linecap:round;stroke-linejoin:round;stroke-width:0.15000000596046448px"/><circle cx="10.67573" cy="15.83067" r="0.47114" style="fill:#d7d7da"/><circle cx="16.48806" cy="15.83067" r="1.15704" style="fill:none;stroke:#d7d7da;stroke-linecap:round;stroke-linejoin:round;stroke-width:0.15000000596046448px"/><circle cx="16.48806" cy="15.83067" r="0.475" style="fill:#d7d7da"/><line x1="13.22526" y1="6.58306" x2="13.87526" y2="6.58306" style="fill:none;stroke:#d7d7da;stroke-linecap:round;stroke-linejoin:round;stroke-width:0.15000000596046448px"/><line x1="13.20238" y1="5.84213" x2="13.95238" y2="5.84213" style="fill:none;stroke:#d7d7da;stroke-linecap:round;stroke-linejoin:round;stroke-width:0.15000000596046448px"/><line x1="13.25238" y1="5.11431" x2="13.90238" y2="5.11431" style="fill:none;stroke:#d7d7da;stroke-linecap:round;stroke-linejoin:round;stroke-width:0.15000000596046448px"/><path d="M16.67975,21.16062a3.3084,3.3084,0,0,1-3.218,0" transform="translate(-1.49336 -2.22944)" style="fill:none;stroke:#d7d7da;stroke-linecap:round;stroke-linejoin:round;stroke-width:0.15000000596046448px"/></svg>