<svg class="img-large" id="portfolio_orange_stroke" data-name="portfolio_orange stroke" xmlns="http://www.w3.org/2000/svg" viewBox="0 0 12.48333 12.40936"><title>portfolio</title><path d="M9.63154,7.24436h1.44109v2.077a.61887.61887,0,0,1-.62656.61089H3.55393a.61887.61887,0,0,1-.62656-.61089v-2.077H4.36846" transform="translate(-0.75833 -0.79532)"/><line x1="4.36199" y1="6.44904" x2="8.12134" y2="6.44904"/><path d="M9.63154,7.24436h1.44109V5.13311c0-.04859-.05611-.088-.12531-.088H3.05268c-.0692,0-.12531.03938-.12531.088V7.24436H4.36846" transform="translate(-0.75833 -0.79532)"/><line x1="5.61511" y1="6.0825" x2="6.86822" y2="6.0825"/><polyline points="3.61 7.06 3.61 6.083 3.359 6.083"/><polyline points="4.362 7.426 4.362 7.671 3.986 8.16 3.61 7.671 3.61 7.426"/><polyline points="3.547 6.083 4.425 6.083 4.613 6.083 4.362 6.083 4.362 7.06"/><rect x="3.23419" y="7.05993" width="1.50374" height="0.36654"/><polyline points="8.121 7.06 8.121 6.083 7.871 6.083"/><polyline points="8.873 7.426 8.873 7.671 8.497 8.16 8.121 7.671 8.121 7.426"/><polyline points="8.059 6.083 8.936 6.083 9.124 6.083 8.873 6.083 8.873 7.06"/><rect x="7.74541" y="7.05993" width="1.50374" height="0.36654"/><path d="M5.55892,5.04514H8.44108V4.31207a.24754.24754,0,0,0-.25062-.24436H5.80954a.24754.24754,0,0,0-.25062.24436Z" transform="translate(-0.75833 -0.79532)"/><ellipse cx="6.24167" cy="6.20468" rx="6.16667" ry="6.12968"/></svg>